<?xml version="1.0" encoding="utf-8"?>
<!-- Generator: Adobe Illustrator 23.0.3, SVG Export Plug-In . SVG Version: 6.00 Build 0)  -->
<svg version="1.1" id="Layer_1" xmlns="http://www.w3.org/2000/svg" xmlns:xlink="http://www.w3.org/1999/xlink" x="0px" y="0px"
	 viewBox="0 0 270.7 177.3" style="enable-background:new 0 0 270.7 177.3;" xml:space="preserve">
<style type="text/css">
	.st0{fill:#23B583;}
</style>
<g>
	<path className="st0" d="M145.5,89.1c0-5.1-3.9-9.4-8.9-9.9v-1.2c0-0.6-0.5-1.1-1.1-1.1c-0.6,0-1.1,0.5-1.1,1.1v1.2
		c-5,0.5-8.9,4.8-8.9,9.9c0,2.8,1.2,5.3,3.1,7.2l-2.1,2.6c-0.3,0.5-0.2,1.2,0.2,1.5c0.2,0.2,0.4,0.2,0.7,0.2c0.3,0,0.7-0.2,0.8-0.4
		l2.1-2.6c1.2,0.7,2.5,1.2,4,1.4v2.1c0,0.6,0.5,1.1,1.1,1.1c0.6,0,1.1-0.5,1.1-1.1V99c1.3-0.2,2.6-0.6,3.8-1.2l1.9,2.5
		c0.2,0.2,0.5,0.4,0.8,0.4c0.2,0,0.5-0.1,0.7-0.2c0.5-0.3,0.6-1.1,0.2-1.5l-1.9-2.4C144.2,94.8,145.5,92.1,145.5,89.1z"/>
	<path className="st0" d="M142.1,144l2.2-2.9c0.3-0.5,0.2-1.2-0.2-1.5c-0.5-0.3-1.2-0.2-1.5,0.2l-2.3,3c-1.4-0.7-3-1.2-4.7-1.2
		c-1.8,0-3.6,0.5-5.1,1.4l-2.5-3.2c-0.3-0.5-1.1-0.6-1.5-0.2c-0.5,0.3-0.6,1.1-0.2,1.5l2.5,3.1c-2,1.8-3.1,4.4-3.1,7.2
		c0,5.5,4.4,9.9,9.9,9.9c5.5,0,9.9-4.4,9.9-9.9C145.6,148.5,144.2,145.8,142.1,144z"/>
	<path className="st0" d="M185.2,141.4c-2.5,0-4.8,0.9-6.6,2.5c0-0.2-0.1-0.4-0.2-0.6l-2.6-3.4c-0.3-0.5-1.1-0.6-1.5-0.2
		c-0.5,0.3-0.6,1.1-0.2,1.5l2.6,3.4c0.2,0.2,0.5,0.4,0.8,0.4c-1.4,1.7-2.3,3.9-2.3,6.3c0,5.5,4.4,9.9,9.9,9.9c5.5,0,9.9-4.4,9.9-9.9
		S190.7,141.4,185.2,141.4z"/>
	<path className="st0" d="M94.3,144.2l2.3-3c0.3-0.5,0.2-1.2-0.2-1.5c-0.5-0.3-1.2-0.2-1.5,0.2l-2.3,3c-1.5-0.9-3.3-1.5-5.2-1.5
		c-5.5,0-9.9,4.4-9.9,9.9c0,5.5,4.4,9.9,9.8,9.9s9.9-4.5,9.9-9.9C97.3,148.5,96.1,146,94.3,144.2z"/>
	<path className="st0" d="M56,123.9l-2.7,3.4c-0.4,0.5-0.3,1.2,0.2,1.6c0.2,0.2,0.4,0.2,0.7,0.2c0.3,0,0.7-0.2,0.8-0.4l2.7-3.4
		c0.4-0.5,0.3-1.2-0.2-1.6C57.1,123.5,56.3,123.5,56,123.9z"/>
	<path className="st0" d="M73.6,102.1l-2.7,3.4c-0.3,0.5-0.3,1.2,0.2,1.6c0.2,0.2,0.4,0.2,0.7,0.2c0.3,0,0.7-0.2,0.8-0.4l2.7-3.4
		c0.3-0.5,0.3-1.2-0.2-1.6C74.7,101.6,73.9,101.7,73.6,102.1z"/>
	<path className="st0" d="M76.7,98.2c-0.4,0.5-0.3,1.2,0.2,1.6c0.2,0.2,0.4,0.2,0.7,0.2c0.3,0,0.7-0.2,0.8-0.4l1.9-2.4
		c1.6,1.2,3.6,1.9,5.8,1.9c2.2,0,4.4-0.7,6-2.1l2.5,3.2c0.2,0.2,0.6,0.4,0.8,0.4s0.5-0.1,0.7-0.2c0.5-0.3,0.6-1.1,0.2-1.5l-2.5-3.5
		l0,0c0.6-0.7,1.1-1.4,1.4-2.2l3.1,1.3c0.2,0.1,0.2,0.1,0.4,0.1c0.4,0,0.8-0.2,1-0.7c0.2-0.6,0-1.2-0.6-1.4l-3.2-1.3
		c0.2-0.7,0.2-1.4,0.2-2.1c0-3-1.3-5.6-3.3-7.4l0.1-0.1c0.3-0.5,0.3-1.2-0.2-1.6c-0.5-0.3-1.2-0.3-1.5,0.2L91,80.5
		c-1.5-0.8-3.1-1.3-4.9-1.3c-5.5,0-9.9,4.4-9.9,9.9c0,2.5,1,4.8,2.5,6.7L76.7,98.2z"/>
	<path className="st0" d="M51.6,131.1c-0.5-0.3-1.2-0.3-1.5,0.2l-2.7,3.4c-0.4,0.5-0.3,1.2,0.2,1.6c0.2,0.2,0.4,0.2,0.7,0.2
		c0.3,0,0.7-0.2,0.8-0.4l2.7-3.4C52.1,132.2,52.1,131.4,51.6,131.1z"/>
	<path className="st0" d="M59.9,121.8c0.3,0,0.7-0.2,0.8-0.4l2.7-3.4c0.4-0.5,0.3-1.2-0.2-1.6c-0.5-0.4-1.2-0.3-1.5,0.2l-2.7,3.4
		c-0.4,0.5-0.3,1.2,0.2,1.6C59.5,121.7,59.8,121.8,59.9,121.8z"/>
	<path className="st0" d="M95.1,78.1c0.3,0,0.7-0.2,0.8-0.4l2.7-3.4c0.3-0.5,0.3-1.2-0.2-1.6c-0.5-0.3-1.2-0.3-1.5,0.2l-2.7,3.4
		c-0.3,0.5-0.3,1.2,0.2,1.6C94.7,78,95,78.1,95.1,78.1z"/>
	<path className="st0" d="M118.6,49c0.3,0,0.7-0.2,0.8-0.4l2.7-3.4c0.3-0.5,0.3-1.2-0.2-1.5c-0.5-0.3-1.2-0.3-1.6,0.2l-2.7,3.4
		c-0.3,0.5-0.3,1.2,0.2,1.5C118.1,48.9,118.4,49,118.6,49z"/>
	<path className="st0" d="M112.7,56.2c0.3,0,0.7-0.2,0.8-0.4l2.7-3.4c0.3-0.5,0.3-1.2-0.2-1.5c-0.5-0.3-1.2-0.3-1.5,0.2l-2.7,3.4
		c-0.3,0.5-0.3,1.2,0.2,1.5C112.3,56.2,112.5,56.2,112.7,56.2z"/>
	<path className="st0" d="M124.5,41.7c0.3,0,0.7-0.2,0.8-0.4l2.7-3.4c0.3-0.5,0.3-1.2-0.2-1.5c-0.5-0.3-1.2-0.3-1.6,0.2l-2.7,3.4
		c-0.3,0.5-0.3,1.2,0.2,1.5C124,41.6,124.2,41.7,124.5,41.7z"/>
	<path className="st0" d="M42.3,143.7c0.3,0,0.7-0.2,0.8-0.4l2.7-3.4c0.4-0.5,0.3-1.2-0.2-1.6c-0.5-0.3-1.2-0.3-1.5,0.2l-2.7,3.4
		c-0.4,0.5-0.3,1.2,0.2,1.6C41.9,143.6,42.1,143.7,42.3,143.7z"/>
	<path className="st0" d="M106.9,63.5c0.3,0,0.7-0.2,0.8-0.4l2.7-3.4c0.3-0.5,0.3-1.2-0.2-1.5c-0.5-0.4-1.2-0.3-1.6,0.2l-2.6,3.4
		c-0.3,0.5-0.3,1.2,0.2,1.5C106.4,63.4,106.6,63.5,106.9,63.5z"/>
	<path className="st0" d="M101,70.8c0.3,0,0.7-0.2,0.8-0.4l2.7-3.4c0.3-0.5,0.3-1.2-0.2-1.5c-0.5-0.3-1.2-0.3-1.5,0.2l-2.7,3.4
		c-0.3,0.5-0.3,1.2,0.2,1.6C100.5,70.8,100.8,70.8,101,70.8z"/>
	<path className="st0" d="M69.2,109.2c-0.5-0.3-1.2-0.3-1.5,0.2l-2.7,3.4c-0.4,0.5-0.3,1.2,0.2,1.6c0.2,0.2,0.4,0.2,0.7,0.2
		c0.3,0,0.7-0.2,0.8-0.4l2.7-3.4C69.7,110.3,69.7,109.6,69.2,109.2z"/>
	<path className="st0" d="M134.5,54.4c0,0.6,0.5,1.1,1.1,1.1s1.1-0.5,1.1-1.1v-4.3c0-0.6-0.5-1.1-1.1-1.1s-1.1,0.5-1.1,1.1V54.4z"/>
	<path className="st0" d="M136.6,124.9c0-0.6-0.5-1.1-1.1-1.1c-0.6,0-1.1,0.5-1.1,1.1v4.3c0,0.6,0.5,1.1,1.1,1.1c0.6,0,1.1-0.5,1.1-1.1
		V124.9z"/>
	<path className="st0" d="M135.6,133.2c-0.6,0-1.1,0.5-1.1,1.1v4.3c0,0.6,0.5,1.1,1.1,1.1s1.1-0.5,1.1-1.1v-4.3
		C136.6,133.6,136.2,133.2,135.6,133.2z"/>
	<path className="st0" d="M135.6,46.1c0.6,0,1.1-0.5,1.1-1.1v-4.3c0-0.6-0.5-1.1-1.1-1.1s-1.1,0.5-1.1,1.1V45
		C134.5,45.6,135,46.1,135.6,46.1z"/>
	<path className="st0" d="M136.6,115.6c0-0.6-0.5-1.1-1.1-1.1c-0.6,0-1.1,0.5-1.1,1.1v4.3c0,0.6,0.5,1.1,1.1,1.1c0.6,0,1.1-0.5,1.1-1.1
		V115.6z"/>
	<path className="st0" d="M134.5,73.1c0,0.6,0.5,1.1,1.1,1.1s1.1-0.5,1.1-1.1v-4.3c0-0.6-0.5-1.1-1.1-1.1s-1.1,0.5-1.1,1.1V73.1z"/>
	<path className="st0" d="M134.5,63.7c0,0.6,0.5,1.1,1.1,1.1s1.1-0.5,1.1-1.1v-4.3c0-0.6-0.5-1.1-1.1-1.1s-1.1,0.5-1.1,1.1V63.7z"/>
	<path className="st0" d="M121.1,107.8c0.2,0.2,0.4,0.2,0.7,0.2c0.3,0,0.7-0.2,0.8-0.4l1.8-2.3c0.1,0,0.1,0,0.2,0c0.4,0,0.8-0.2,1-0.7
		c0.2-0.3,0.1-0.7-0.1-0.9c0.1-0.4-0.1-0.8-0.4-1.1c-0.4-0.3-1-0.2-1.4,0.1l-2.7-1.2c-0.6-0.2-1.2,0-1.4,0.6s0,1.2,0.6,1.4l2.1,0.9
		l-1.4,1.8C120.6,106.8,120.6,107.5,121.1,107.8z"/>
	<path className="st0" d="M100.6,132.4l-2.6,3.4c-0.3,0.5-0.2,1.2,0.2,1.5c0.2,0.2,0.4,0.2,0.7,0.2c0.3,0,0.7-0.2,0.8-0.4l2.6-3.4
		c0.3-0.5,0.2-1.2-0.2-1.5C101.7,131.9,101,132,100.6,132.4z"/>
	<path className="st0" d="M106.4,125.1l-2.6,3.4c-0.3,0.5-0.2,1.2,0.2,1.5c0.2,0.2,0.4,0.2,0.7,0.2c0.3,0,0.7-0.2,0.8-0.4l2.6-3.4
		c0.3-0.5,0.2-1.2-0.2-1.5C107.4,124.5,106.7,124.6,106.4,125.1z"/>
	<path className="st0" d="M119.4,110.1c-0.5-0.3-1.2-0.2-1.5,0.2l-2.6,3.4c-0.3,0.5-0.2,1.2,0.2,1.5c0.2,0.2,0.4,0.2,0.7,0.2
		c0.3,0,0.7-0.2,0.8-0.4l2.6-3.4C119.9,111.1,119.8,110.5,119.4,110.1z"/>
	<path className="st0" d="M116.7,125.1c-0.3-0.5-1.1-0.6-1.5-0.2c-0.5,0.3-0.6,1.1-0.2,1.5l2.6,3.4c0.2,0.2,0.5,0.4,0.8,0.4
		c0.2,0,0.5-0.1,0.7-0.2c0.5-0.3,0.6-1.1,0.2-1.5L116.7,125.1z"/>
	<path className="st0" d="M112.9,120.2l0.9-1.2l2.7-1.2c0.6-0.2,0.8-0.8,0.6-1.4c-0.2-0.6-0.9-0.8-1.4-0.6l-4,1.6
		c-0.2,0.1-0.4,0.2-0.5,0.4l-0.2-0.3c-0.3-0.5-1.1-0.6-1.5-0.2c-0.5,0.3-0.6,1.1-0.2,1.5l1,1.2l-0.7,0.9c-0.3,0.5-0.2,1.2,0.2,1.5
		c0.2,0.2,0.4,0.2,0.7,0.2c0.3,0,0.7-0.2,0.8-0.4l0.3-0.4l0.3,0.4c0.2,0.2,0.6,0.4,0.8,0.4s0.5-0.1,0.7-0.2c0.5-0.3,0.6-1.1,0.2-1.5
		L112.9,120.2z"/>
	<path className="st0" d="M103.7,110.1c-0.5,0.3-0.6,1.1-0.2,1.5l2.6,3.4c0.2,0.2,0.6,0.4,0.8,0.4s0.5-0.1,0.7-0.2
		c0.5-0.3,0.6-1.1,0.2-1.5l-2.6-3.4C104.7,109.8,104.1,109.7,103.7,110.1z"/>
	<path className="st0" d="M101.2,108.1c0.2,0,0.5-0.1,0.7-0.2c0.5-0.3,0.6-1.1,0.2-1.5l-2.6-3.4c-0.3-0.5-1.1-0.6-1.5-0.2
		c-0.5,0.3-0.6,1.1-0.2,1.5l2.6,3.4C100.5,107.9,100.9,108.1,101.2,108.1z"/>
	<path className="st0" d="M122.3,132.4c-0.3-0.5-1.1-0.6-1.5-0.2c-0.5,0.3-0.6,1.1-0.2,1.5l2.6,3.4c0.2,0.2,0.5,0.4,0.8,0.4
		c0.2,0,0.5-0.1,0.7-0.2c0.5-0.3,0.6-1.1,0.2-1.5L122.3,132.4z"/>
	<path className="st0" d="M165.6,110.3l-2.6,3.4c-0.3,0.5-0.2,1.2,0.2,1.5c0.2,0.2,0.4,0.2,0.7,0.2c0.3,0,0.7-0.2,0.8-0.4l2.6-3.4
		c0.3-0.5,0.2-1.2-0.2-1.5C166.6,109.8,165.9,109.8,165.6,110.3z"/>
	<path className="st0" d="M168.9,107.8c0.2,0.2,0.4,0.2,0.7,0.2c0.3,0,0.7-0.2,0.8-0.4l2.6-3.4c0.3-0.5,0.2-1.2-0.2-1.5
		c-0.5-0.3-1.2-0.2-1.5,0.2l-2.6,3.4C168.3,106.8,168.4,107.5,168.9,107.8z"/>
	<path className="st0" d="M148.3,132.4l-2.6,3.4c-0.3,0.5-0.2,1.2,0.2,1.5c0.2,0.2,0.4,0.2,0.7,0.2c0.3,0,0.7-0.2,0.8-0.4l2.6-3.4
		c0.3-0.5,0.2-1.2-0.2-1.5C149.4,131.9,148.7,132,148.3,132.4z"/>
	<path className="st0" d="M154.1,125.1l-2.6,3.4c-0.3,0.5-0.2,1.2,0.2,1.5c0.2,0.2,0.4,0.2,0.7,0.2c0.3,0,0.7-0.2,0.8-0.4l2.6-3.4
		c0.3-0.5,0.2-1.2-0.2-1.5C155.1,124.5,154.5,124.6,154.1,125.1z"/>
	<path className="st0" d="M159.8,117.7L159.8,117.7c-0.1,0-0.2-0.1-0.2-0.1l-4-1.6c-0.6-0.2-1.2,0-1.4,0.6c-0.2,0.6,0,1.2,0.6,1.4
		l2.1,0.8c0,0.1,0.1,0.2,0.1,0.2l0.9,1.2l-0.7,0.9c-0.3,0.5-0.2,1.2,0.2,1.5c0.2,0.2,0.4,0.2,0.7,0.2c0.3,0,0.7-0.2,0.8-0.4l0.3-0.4
		l0.3,0.4c0.2,0.2,0.5,0.4,0.8,0.4c0.2,0,0.5-0.1,0.7-0.2c0.5-0.3,0.6-1.1,0.2-1.5l-0.7-0.9l0.9-1.2c0.3-0.5,0.2-1.2-0.2-1.5
		C160.9,117.1,160.1,117.2,159.8,117.7z"/>
	<path className="st0" d="M164.3,125.1c-0.3-0.5-1.1-0.6-1.5-0.2c-0.5,0.3-0.6,1.1-0.2,1.5l2.6,3.4c0.2,0.2,0.5,0.4,0.8,0.4
		c0.2,0,0.5-0.1,0.7-0.2c0.5-0.3,0.6-1.1,0.2-1.5L164.3,125.1z"/>
	<path className="st0" d="M153.8,115.1c0.2,0.2,0.5,0.4,0.8,0.4c0.2,0,0.5-0.1,0.7-0.2c0.5-0.3,0.6-1.1,0.2-1.5l-2.6-3.4
		c-0.3-0.5-1.1-0.6-1.5-0.2c-0.5,0.3-0.6,1.1-0.2,1.5L153.8,115.1z"/>
	<path className="st0" d="M170.1,132.4c-0.3-0.5-1.1-0.6-1.5-0.2c-0.5,0.3-0.6,1.1-0.2,1.5l2.6,3.4c0.2,0.2,0.5,0.4,0.8,0.4
		c0.2,0,0.5-0.1,0.7-0.2c0.5-0.3,0.6-1.1,0.2-1.5L170.1,132.4z"/>
	<path className="st0" d="M89.7,126.7l-3.9,1.6c-0.6,0.2-0.8,0.8-0.6,1.4c0.2,0.4,0.6,0.7,1,0.7c0.2,0,0.2,0,0.4-0.1l3.9-1.6
		c0.6-0.2,0.8-0.8,0.6-1.4S90.3,126.4,89.7,126.7z"/>
	<path className="st0" d="M143,105.9c-0.2-0.6-0.9-0.8-1.4-0.6l-3.8,1.6l0,0l-1.2,0.5v-1.2c0-0.6-0.5-1.1-1.1-1.1s-1.1,0.5-1.1,1.1v1.1
		l-1.3-0.5l0,0l-3.6-1.5c-0.6-0.2-1.2,0-1.4,0.6c-0.2,0.6,0,1.2,0.6,1.4l3.9,1.6l-0.2,0.1l0,0l-3.6,1.5c-0.6,0.2-0.8,0.8-0.6,1.4
		c0.2,0.4,0.6,0.7,1,0.7c0.2,0,0.2,0,0.4-0.1l4-1.6c0,0,0.1,0,0.1-0.1l0,0l0.7-0.3l0,0c0,0.6,0.5,1.1,1.1,1.1c0.6,0,1.1-0.5,1.1-1.1
		l0,0l0.7,0.3l0,0l0.2,0.1l0.2,0.1l0,0l3.7,1.6c0.2,0.1,0.2,0.1,0.4,0.1c0.4,0,0.8-0.2,1-0.7c0.2-0.6,0-1.2-0.6-1.4l-3.2-1.3l0,0
		l-0.6-0.2l3.9-1.6C143,107,143.2,106.4,143,105.9z"/>
	<path className="st0" d="M46.5,144.5l-3.9,1.6c-1.7-2.9-4.8-4.8-8.5-4.8c-5.5,0-9.9,4.4-9.9,9.9s4.4,9.9,9.9,9.9s9.9-4.4,9.9-9.9
		c0-1.2-0.2-2.2-0.6-3.2l3.9-1.6c0.6-0.2,0.8-0.8,0.6-1.4C47.7,144.5,47,144.2,46.5,144.5z"/>
	<path className="st0" d="M72.4,133.8l-3.9,1.6c-0.6,0.2-0.8,0.8-0.6,1.4c0.2,0.4,0.6,0.7,1,0.7c0.2,0,0.2,0,0.4-0.1l3.9-1.6
		c0.6-0.2,0.8-0.8,0.6-1.4C73.6,133.8,73,133.6,72.4,133.8z"/>
	<path className="st0" d="M63.8,137.3l-3.9,1.6c-0.6,0.2-0.8,0.8-0.6,1.4c0.2,0.4,0.6,0.7,1,0.7c0.2,0,0.2,0,0.4-0.1l3.9-1.6
		c0.6-0.2,0.8-0.8,0.6-1.4C65,137.4,64.3,137.1,63.8,137.3z"/>
	<path className="st0" d="M107,119.5l-3.9,1.6c-0.6,0.2-0.8,0.8-0.6,1.4c0.2,0.4,0.6,0.7,1,0.7c0.2,0,0.2,0,0.4-0.1l3.9-1.6
		c0.6-0.2,0.8-0.8,0.6-1.4C108.2,119.5,107.5,119.3,107,119.5z"/>
	<path className="st0" d="M172.6,94.7c0.2,0,0.2,0,0.4-0.1l2.2-0.9c0.4,0.8,1,1.6,1.6,2.2l-2.4,3c-0.3,0.5-0.2,1.2,0.2,1.5
		c0.2,0.2,0.4,0.2,0.7,0.2c0.3,0,0.7-0.2,0.8-0.4l2.3-3c1.6,1.1,3.5,1.7,5.6,1.7c2.3,0,4.4-0.8,6.2-2.1l2.1,2.6
		c0.2,0.2,0.5,0.4,0.8,0.4c0.2,0,0.5-0.1,0.7-0.2c0.5-0.3,0.5-1.1,0.2-1.6l-2.3-2.8c1.4-1.7,2.2-3.9,2.2-6.2c0-5.5-4.4-9.9-9.9-9.9
		c-1.6,0-3.1,0.4-4.5,1.1c-0.4-0.4-1.1-0.5-1.5-0.2c-0.4,0.3-0.5,0.8-0.2,1.3c-2.2,1.8-3.7,4.6-3.7,7.7c0,0.9,0.2,1.7,0.3,2.5
		l-2.2,0.9c-0.6,0.2-0.8,0.8-0.6,1.4C171.7,94.4,172.1,94.7,172.6,94.7z"/>
	<path className="st0" d="M151.6,102.2c-0.2-0.6-0.8-0.8-1.4-0.6l-3,1.2l0,0c-0.3-0.5-1.1-0.6-1.5-0.2c-0.5,0.3-0.6,1.1-0.2,1.5l0.2,0.2
		c0,0.1,0,0.2,0.1,0.2c0.1,0.3,0.3,0.5,0.7,0.6l1.8,2.4c0.2,0.2,0.5,0.4,0.8,0.4c0.2,0,0.5-0.1,0.7-0.2c0.5-0.3,0.6-1.1,0.2-1.5
		l-1.2-1.6l2.5-1.1C151.6,103.4,151.8,102.8,151.6,102.2z"/>
	<path className="st0" d="M168.9,95.1c-0.2-0.6-0.9-0.8-1.4-0.6l-4,1.6c-0.6,0.2-0.8,0.8-0.6,1.4c0.2,0.4,0.6,0.7,1,0.7
		c0.2,0,0.2,0,0.4-0.1l4-1.6C168.9,96.3,169.1,95.7,168.9,95.1z"/>
	<path className="st0" d="M125.7,112.9c-0.2-0.6-0.9-0.8-1.4-0.6l-4,1.6c-0.6,0.2-0.8,0.8-0.6,1.4c0.2,0.4,0.6,0.7,1,0.7
		c0.2,0,0.2,0,0.4-0.1l4-1.6C125.6,114.2,125.9,113.5,125.7,112.9z"/>
	<path className="st0" d="M154.9,99.7c-0.6,0.2-0.8,0.8-0.6,1.4c0.2,0.4,0.6,0.7,1,0.7c0.2,0,0.2,0,0.4-0.1l4-1.6
		c0.6-0.2,0.8-0.8,0.6-1.4c-0.2-0.6-0.9-0.8-1.4-0.6L154.9,99.7z"/>
	<path className="st0" d="M77.9,133.9l4-1.6c0.6-0.2,0.8-0.8,0.6-1.4c-0.2-0.6-0.8-0.8-1.4-0.6l-4,1.6c-0.6,0.2-0.8,0.8-0.6,1.4
		c0.2,0.4,0.6,0.7,1,0.7C77.6,134,77.8,133.9,77.9,133.9z"/>
	<path className="st0" d="M98.3,123.1l-3.9,1.6c-0.6,0.2-0.8,0.8-0.6,1.4c0.2,0.4,0.6,0.7,1,0.7c0.2,0,0.2,0,0.4-0.1l3.9-1.6
		c0.6-0.2,0.8-0.8,0.6-1.4C99.6,123.1,98.9,122.9,98.3,123.1z"/>
	<path className="st0" d="M55.2,141l-3.9,1.6c-0.6,0.2-0.8,0.8-0.6,1.4c0.2,0.4,0.6,0.7,1,0.7c0.2,0,0.2,0,0.4-0.1l3.9-1.6
		c0.6-0.2,0.8-0.8,0.6-1.4C56.3,141,55.7,140.7,55.2,141z"/>
	<path className="st0" d="M236.7,141.4L236.7,141.4C236.7,141.4,236.6,141.4,236.7,141.4c-3.5,0-6.7,1.8-8.4,4.6l-3.5-1.5
		c-0.6-0.2-1.2,0-1.4,0.6c-0.2,0.6,0,1.2,0.6,1.4l3.5,1.4c-0.4,1.1-0.6,2.2-0.6,3.4c0,5.5,4.4,9.9,9.9,9.9l0,0l0,0
		c5.5,0,9.9-4.4,9.9-9.9C246.7,145.7,242.1,141.4,236.7,141.4z"/>
	<path className="st0" d="M111.5,100.1l3.9,1.6c0.2,0.1,0.2,0.1,0.4,0.1c0.4,0,0.8-0.2,1-0.7c0.2-0.6,0-1.2-0.6-1.4l-3.9-1.6
		c-0.6-0.2-1.2,0-1.4,0.6C110.7,99.2,111,99.9,111.5,100.1z"/>
	<path className="st0" d="M211.4,139l-4-1.6c-0.6-0.2-1.2,0-1.4,0.6c-0.2,0.6,0,1.2,0.6,1.4l4,1.6c0.2,0.1,0.2,0.1,0.4,0.1
		c0.4,0,0.8-0.2,1-0.7C212.2,139.9,211.9,139.2,211.4,139z"/>
	<path className="st0" d="M181.4,126.7c-0.6-0.2-1.2,0-1.4,0.6c-0.2,0.6,0,1.2,0.6,1.4l4,1.6c0.2,0.1,0.2,0.1,0.4,0.1
		c0.4,0,0.8-0.2,1-0.7c0.2-0.6,0-1.2-0.6-1.4L181.4,126.7z"/>
	<path className="st0" d="M108.3,97.6c0.2-0.6,0-1.2-0.6-1.4l-3.9-1.6c-0.6-0.2-1.2,0-1.4,0.6c-0.2,0.6,0,1.2,0.6,1.4l3.9,1.6
		c0.2,0.1,0.2,0.1,0.4,0.1C107.7,98.2,108.1,98,108.3,97.6z"/>
	<path className="st0" d="M172.8,123.1c-0.6-0.2-1.2,0-1.4,0.6c-0.2,0.6,0,1.2,0.6,1.4l4,1.6c0.2,0.1,0.2,0.1,0.4,0.1
		c0.4,0,0.8-0.2,1-0.7c0.2-0.6,0-1.2-0.6-1.4L172.8,123.1z"/>
	<path className="st0" d="M202.7,135.5l-4-1.6c-0.6-0.2-1.2,0-1.4,0.6c-0.2,0.6,0,1.2,0.6,1.4l4,1.6c0.2,0.1,0.2,0.1,0.4,0.1
		c0.4,0,0.8-0.2,1-0.7C203.5,136.3,203.3,135.7,202.7,135.5z"/>
	<path className="st0" d="M168.8,122.5c0.2-0.6,0-1.2-0.6-1.4l-4-1.6c-0.6-0.2-1.2,0-1.4,0.6c-0.2,0.6,0,1.2,0.6,1.4l4,1.6
		c0.2,0.1,0.2,0.1,0.4,0.1C168.2,123.2,168.6,123,168.8,122.5z"/>
	<path className="st0" d="M220,142.6l-4-1.6c-0.6-0.2-1.2,0-1.4,0.6c-0.2,0.6,0,1.2,0.6,1.4l4,1.6c0.2,0.1,0.2,0.1,0.4,0.1
		c0.4,0,0.8-0.2,1-0.7C220.8,143.4,220.6,142.8,220,142.6z"/>
	<path className="st0" d="M151.4,115.4c0.2-0.6,0-1.2-0.6-1.4l-4-1.6c-0.6-0.2-1.2,0-1.4,0.6c-0.2,0.6,0,1.2,0.6,1.4l4,1.6
		c0.2,0.1,0.2,0.1,0.4,0.1C150.9,116.1,151.3,115.8,151.4,115.4z"/>
	<path className="st0" d="M190.1,130.2c-0.6-0.2-1.2,0-1.4,0.6c-0.2,0.6,0,1.2,0.6,1.4l4,1.6c0.2,0.1,0.2,0.1,0.4,0.1
		c0.4,0,0.8-0.2,1-0.7c0.2-0.6,0-1.2-0.6-1.4L190.1,130.2z"/>
	<path className="st0" d="M135.6,37.8c6.1,0,11-4.9,11-11s-4.9-11-11-11s-11,4.9-11,11S129.5,37.8,135.6,37.8z M135.6,17.9
		c4.8,0,8.9,3.9,8.9,8.9s-3.9,8.9-8.9,8.9s-8.9-3.9-8.9-8.9S130.7,17.9,135.6,17.9z"/>
	<path className="st0" d="M174.7,77.7c0.2,0.2,0.5,0.4,0.8,0.4c0.2,0,0.5-0.1,0.7-0.2c0.5-0.3,0.5-1.1,0.2-1.6l-2.7-3.4
		c-0.4-0.5-1.1-0.5-1.6-0.2s-0.5,1.1-0.2,1.6L174.7,77.7z"/>
	<path className="st0" d="M227.5,143.3c0.2,0.2,0.5,0.4,0.8,0.4c0.2,0,0.5-0.1,0.7-0.2c0.5-0.3,0.5-1.1,0.2-1.6l-2.7-3.4
		c-0.4-0.5-1.1-0.5-1.6-0.2c-0.5,0.3-0.5,1.1-0.2,1.6L227.5,143.3z"/>
	<path className="st0" d="M209.9,121.4c0.2,0.2,0.5,0.4,0.8,0.4c0.2,0,0.5-0.1,0.7-0.2c0.5-0.3,0.5-1.1,0.2-1.6l-2.7-3.4
		c-0.3-0.5-1.1-0.5-1.6-0.2s-0.5,1.1-0.2,1.6L209.9,121.4z"/>
	<path className="st0" d="M168.8,70.4c0.2,0.2,0.5,0.4,0.8,0.4c0.2,0,0.5-0.1,0.7-0.2c0.5-0.3,0.5-1.1,0.2-1.5l-2.7-3.4
		c-0.4-0.5-1.1-0.6-1.6-0.2c-0.5,0.3-0.5,1.1-0.2,1.5L168.8,70.4z"/>
	<path className="st0" d="M142.8,36.4c-0.5,0.3-0.5,1.1-0.2,1.5l2.7,3.4c0.2,0.2,0.5,0.4,0.8,0.4c0.2,0,0.5-0.1,0.7-0.2
		c0.5-0.3,0.5-1.1,0.2-1.5l-2.7-3.4C143.9,36.1,143.2,36.1,142.8,36.4z"/>
	<path className="st0" d="M223.3,134.6l-2.7-3.4c-0.4-0.5-1.1-0.5-1.6-0.2c-0.5,0.3-0.5,1.1-0.2,1.6l2.7,3.4c0.2,0.2,0.5,0.4,0.8,0.4
		c0.2,0,0.5-0.1,0.7-0.2C223.5,135.8,223.6,135,223.3,134.6z"/>
	<path className="st0" d="M216.5,129.1c0.2,0,0.5-0.1,0.7-0.2c0.5-0.3,0.5-1.1,0.2-1.6l-2.7-3.4c-0.4-0.5-1.1-0.5-1.6-0.2
		c-0.5,0.3-0.5,1.1-0.2,1.6l2.7,3.4C216,129,216.2,129.1,216.5,129.1z"/>
	<path className="st0" d="M151.2,48.6c0.2,0.2,0.5,0.4,0.8,0.4c0.2,0,0.5-0.1,0.7-0.2c0.5-0.3,0.5-1.1,0.2-1.5l-2.7-3.4
		c-0.4-0.5-1.1-0.6-1.6-0.2c-0.5,0.3-0.5,1.1-0.2,1.5L151.2,48.6z"/>
	<path className="st0" d="M157.1,55.9c0.2,0.2,0.5,0.4,0.8,0.4c0.2,0,0.5-0.1,0.7-0.2c0.5-0.3,0.5-1.1,0.2-1.5l-2.7-3.4
		c-0.4-0.5-1.1-0.6-1.6-0.2c-0.5,0.3-0.5,1.1-0.2,1.5L157.1,55.9z"/>
	<path className="st0" d="M162.9,63.1c0.2,0.2,0.5,0.4,0.8,0.4c0.2,0,0.5-0.1,0.7-0.2c0.5-0.3,0.5-1.1,0.2-1.5l-2.7-3.4
		c-0.3-0.5-1.1-0.6-1.6-0.2c-0.5,0.3-0.5,1.1-0.2,1.5L162.9,63.1z"/>
	<path className="st0" d="M203,109.4c-0.4-0.5-1.1-0.5-1.6-0.2c-0.5,0.3-0.5,1.1-0.2,1.6l2.7,3.4c0.2,0.2,0.5,0.4,0.8,0.4
		c0.2,0,0.5-0.1,0.7-0.2c0.5-0.3,0.5-1.1,0.2-1.6L203,109.4z"/>
	<path className="st0" d="M198.9,107.3c0.2,0,0.5-0.1,0.7-0.2c0.5-0.3,0.5-1.1,0.2-1.6l-2.7-3.4c-0.4-0.5-1.1-0.5-1.6-0.2
		c-0.5,0.3-0.5,1.1-0.2,1.6l2.7,3.4C198.3,107.1,198.6,107.3,198.9,107.3z"/>
</g>
</svg>
