<?xml version="1.0" standalone="no"?>
<!DOCTYPE svg PUBLIC "-//W3C//DTD SVG 20010904//EN"
 "http://www.w3.org/TR/2001/REC-SVG-20010904/DTD/svg10.dtd">
<svg version="1.0" xmlns="http://www.w3.org/2000/svg"
 width="640.000000pt" height="1280.000000pt" viewBox="0 0 640.000000 1280.000000"
 preserveAspectRatio="xMidYMid meet">
<metadata>
Created by potrace 1.15, written by Peter Selinger 2001-2017
</metadata>
<g transform="translate(0.000000,1280.000000) scale(0.100000,-0.100000)"
fill="#01bb85" stroke="none">
<path d="M3496 12783 c-29 -100 -57 -330 -81 -663 -9 -124 -20 -234 -24 -244
-6 -16 -11 -9 -27 34 -10 29 -24 55 -30 57 -21 7 -129 -224 -174 -372 -18 -57
-19 -58 -42 -30 -11 14 -46 39 -77 55 -32 15 -62 34 -68 42 -10 13 -33 104
-52 208 -24 126 -34 361 -28 638 5 247 4 282 -9 282 -53 0 -78 -63 -51 -130
12 -30 13 -54 6 -112 -26 -228 5 -688 67 -978 7 -33 6 -34 -11 -20 -10 8 -31
43 -46 78 -40 89 -52 82 -47 -30 4 -101 4 -100 136 -351 29 -54 52 -110 52
-125 0 -15 -4 -22 -8 -16 -4 6 -42 34 -84 62 -67 45 -79 58 -88 93 -6 22 -18
43 -27 46 -18 7 -35 -16 -27 -37 12 -32 16 -80 7 -80 -5 0 -22 39 -36 88 -62
202 -95 392 -104 600 -5 116 -8 132 -23 132 -10 0 -20 -6 -23 -13 -7 -18 10
-312 23 -394 6 -38 26 -151 44 -253 19 -102 36 -214 39 -250 l6 -65 -29 63
c-16 34 -32 62 -36 62 -10 0 4 -189 22 -300 20 -118 69 -258 117 -333 20 -31
33 -57 27 -57 -5 0 -25 27 -45 59 -37 60 -65 84 -65 55 0 -21 32 -81 89 -168
27 -41 52 -87 55 -102 4 -16 10 -23 14 -17 4 6 30 12 59 14 49 4 52 3 47 -17
-4 -15 14 -45 64 -109 119 -151 187 -280 221 -421 31 -124 36 -187 18 -215 -9
-13 -25 -56 -35 -95 -11 -40 -25 -82 -32 -94 -12 -22 -12 -22 -33 -2 -12 10
-51 36 -87 57 -36 21 -77 49 -92 63 -21 20 -28 22 -28 10 0 -9 7 -21 15 -28
31 -25 14 -31 -24 -9 -50 30 -246 219 -228 219 21 0 9 49 -23 90 -61 78 -129
322 -116 414 4 25 11 48 15 51 17 10 64 -121 82 -229 27 -160 39 -215 48 -221
5 -2 6 15 4 39 -3 24 -1 46 5 50 5 3 35 -34 66 -83 60 -95 259 -321 310 -352
38 -23 72 -24 80 -3 4 10 -25 48 -92 117 -54 56 -133 147 -175 202 -41 55 -86
106 -98 113 l-22 14 22 -36 c13 -20 19 -36 14 -36 -13 0 -71 100 -99 169 -24
59 -37 116 -49 214 -5 35 -11 47 -23 47 -9 0 -37 14 -61 30 -41 28 -46 29 -54
14 -6 -10 -7 -67 -3 -138 l7 -120 -25 23 c-14 13 -28 32 -32 43 -7 24 -31 23
-44 -2 -17 -31 -36 -24 -54 20 -12 31 -16 76 -16 193 0 89 -7 197 -17 262 -9
64 -17 176 -17 266 -1 119 -4 160 -15 173 -14 16 -15 16 -24 0 -18 -33 -20
-201 -3 -385 9 -101 20 -268 25 -370 8 -163 12 -194 34 -247 17 -44 21 -62 12
-62 -7 0 -18 7 -25 15 -7 8 -19 15 -27 15 -11 0 -12 -11 -8 -52 32 -276 120
-446 271 -525 51 -26 54 -30 54 -65 0 -44 -9 -46 -58 -16 -25 15 -39 19 -50
11 -13 -8 -26 1 -64 41 l-49 51 4 -95 c3 -52 8 -105 12 -117 7 -21 5 -22 -29
-16 -36 6 -36 5 -36 -30 0 -20 -5 -39 -10 -42 -6 -3 -10 -1 -10 5 0 7 -24 35
-54 64 -63 61 -75 92 -105 291 -23 145 -33 186 -56 221 -40 61 -55 0 -20 -80
22 -49 27 -77 29 -165 3 -82 8 -116 24 -151 12 -25 22 -59 22 -77 0 -42 71
-139 108 -148 51 -13 71 -45 28 -45 -13 0 -43 16 -67 35 -24 19 -45 31 -47 26
-1 -4 11 -46 28 -93 40 -110 117 -228 181 -276 40 -30 52 -46 64 -86 8 -27 13
-51 12 -53 -2 -1 -27 7 -55 19 -28 12 -55 19 -58 15 -13 -12 26 -57 80 -91 47
-30 55 -40 61 -76 4 -24 26 -69 52 -107 50 -74 60 -93 45 -93 -6 0 -20 16 -32
35 -12 19 -28 35 -36 35 -20 0 -17 -57 6 -105 16 -34 16 -41 4 -43 -8 -2 -23
-21 -35 -43 -11 -22 -27 -43 -36 -46 -20 -8 -73 48 -73 77 0 20 1 20 31 5 17
-9 33 -14 36 -11 8 8 -7 115 -18 121 -5 4 -9 -3 -9 -14 0 -14 -8 -22 -27 -27
-50 -11 -53 -13 -53 -45 0 -27 -2 -30 -16 -18 -23 19 -51 78 -89 187 -65 186
-104 269 -146 307 -36 32 -69 46 -69 28 0 -4 32 -60 70 -124 85 -142 104 -193
119 -329 12 -104 48 -210 70 -210 6 0 14 18 17 40 8 50 16 55 42 27 30 -32 46
-77 27 -77 -7 0 -17 5 -20 10 -3 6 -14 10 -23 10 -12 0 -13 -3 -5 -8 13 -8 36
-62 30 -69 -3 -2 -12 8 -21 22 -9 14 -23 25 -31 25 -25 0 -17 -45 15 -85 33
-41 35 -45 20 -45 -5 0 -25 21 -45 48 -69 90 -88 82 -51 -21 42 -112 102 -213
165 -275 32 -32 63 -73 69 -92 21 -63 41 -374 23 -355 -15 18 -90 202 -96 241
-4 22 -14 54 -23 72 -24 53 -32 21 -32 -130 0 -76 -4 -138 -8 -138 -15 0 -70
64 -90 105 -30 62 -49 129 -76 267 -24 122 -42 174 -74 211 -41 47 -43 -6 -3
-106 50 -124 54 -152 41 -237 -11 -70 -10 -80 8 -116 10 -21 27 -70 36 -108
18 -72 38 -119 64 -149 8 -9 12 -20 9 -23 -3 -4 -2 -15 3 -25 6 -10 6 -20 1
-23 -17 -11 -58 33 -85 89 -26 57 -66 105 -86 105 -17 0 -12 -24 16 -76 14
-27 27 -68 29 -92 2 -24 10 -54 18 -66 8 -12 36 -71 61 -131 93 -217 162 -305
263 -337 40 -12 52 -22 72 -60 48 -88 -2 -97 -88 -15 -38 37 -42 39 -36 17 14
-47 57 -145 87 -198 17 -29 28 -55 26 -58 -7 -6 -106 15 -152 32 -64 25 -97
54 -122 108 -20 43 -24 67 -24 154 0 78 -4 111 -17 135 l-17 32 -7 -30 c-20
-90 0 -304 44 -468 21 -76 22 -87 8 -85 -8 2 -25 19 -38 38 -43 67 -54 80 -64
75 -14 -9 -11 -48 7 -74 12 -16 14 -34 10 -61 -5 -29 -1 -43 15 -64 12 -15 41
-77 65 -138 54 -138 79 -176 149 -228 30 -22 57 -50 59 -63 18 -84 17 -97 -2
-97 -17 0 -20 -11 -26 -115 -4 -63 -4 -125 0 -137 6 -21 5 -22 -11 -8 -10 8
-36 52 -57 98 -39 85 -88 148 -96 124 -2 -7 4 -31 13 -54 19 -48 9 -66 -26
-47 -44 22 -94 72 -99 98 -7 33 -23 29 -31 -6 -10 -49 17 -143 70 -252 28 -57
49 -106 46 -109 -10 -10 -100 55 -122 87 -33 48 -43 94 -43 194 0 63 -5 97
-17 120 l-17 32 -7 -40 c-11 -59 -10 -224 1 -286 6 -30 22 -78 36 -106 15 -32
23 -61 19 -72 -4 -14 5 -36 28 -70 30 -43 97 -204 97 -232 0 -5 -10 -9 -23 -9
-19 0 -25 8 -36 50 -13 49 -40 80 -69 80 -34 0 33 -125 99 -186 46 -43 141
-102 208 -129 31 -13 58 -29 62 -37 22 -50 59 -180 59 -211 0 -36 0 -36 -27
-26 -65 26 -74 35 -112 108 -60 115 -105 148 -83 59 8 -30 8 -46 0 -55 -14
-17 -22 -16 -47 5 -16 12 -25 39 -36 101 -8 47 -19 89 -24 94 -6 6 -21 -16
-41 -59 -17 -37 -38 -76 -46 -85 -14 -16 -14 -20 2 -50 9 -19 40 -58 69 -89
34 -36 55 -67 60 -90 3 -19 13 -57 22 -84 15 -48 16 -48 52 -43 l36 4 2 -48
c1 -28 -2 -49 -8 -49 -5 0 -50 40 -98 90 -87 87 -90 90 -135 90 -25 0 -46 -4
-46 -10 0 -5 16 -10 36 -10 32 0 37 -4 57 -48 12 -27 51 -99 87 -161 71 -125
76 -129 188 -151 35 -7 73 -20 84 -30 18 -14 20 -22 12 -55 -5 -21 -14 -40
-21 -42 -6 -2 -27 19 -48 47 -21 28 -39 49 -42 47 -2 -3 3 -33 12 -67 9 -34
13 -75 10 -90 -5 -22 1 -38 23 -69 16 -22 37 -66 46 -98 10 -32 26 -84 36
-116 10 -31 16 -57 13 -57 -4 0 -36 19 -71 42 -46 30 -69 53 -79 78 -16 36
-29 50 -50 50 -23 0 -14 -48 17 -97 19 -30 30 -60 30 -83 0 -29 20 -66 98
-185 180 -272 264 -319 538 -298 148 12 140 16 175 -76 23 -60 38 -191 22
-191 -15 0 -57 49 -98 115 l-38 60 -15 -35 c-21 -47 -28 -237 -12 -309 17 -76
58 -157 89 -177 14 -9 38 -28 53 -42 l27 -25 -35 -70 -36 -70 4 -128 c3 -117
5 -130 25 -151 12 -12 25 -19 28 -16 3 3 -1 34 -10 69 -19 84 -19 199 1 247
14 35 16 36 27 17 8 -13 11 -59 9 -133 -1 -63 3 -132 9 -154 9 -35 8 -42 -8
-53 -27 -20 -8 -30 21 -11 37 24 46 20 46 -19 l0 -36 -50 7 c-47 6 -50 5 -50
-15 0 -12 7 -36 16 -52 8 -17 13 -38 9 -47 -10 -27 -40 20 -70 108 -29 86 -61
144 -75 135 -38 -23 -52 -233 -25 -382 12 -73 18 -86 48 -113 70 -61 98 -181
62 -267 -14 -34 -14 -44 6 -135 12 -54 26 -98 31 -98 4 0 8 6 8 13 0 8 4 7 10
-3 5 -8 10 -48 10 -88 0 -64 -2 -73 -17 -70 -17 3 -18 -15 -21 -237 -3 -266
-3 -265 64 -265 54 0 56 11 34 181 -22 172 -25 304 -9 364 10 33 13 37 19 20
4 -11 10 -53 14 -93 3 -40 13 -87 20 -105 14 -30 14 -27 15 68 1 90 11 138 25
124 3 -3 7 -128 9 -278 4 -217 7 -275 18 -282 22 -14 56 -10 63 7 11 27 7 103
-10 196 -13 68 -14 101 -7 134 8 34 7 46 -3 55 -11 9 -14 65 -14 276 0 263 0
264 -24 296 -52 69 -58 110 -53 378 l4 246 30 44 c36 52 59 115 73 201 12 77
13 178 1 178 -5 0 -35 -20 -67 -45 -31 -25 -61 -45 -66 -45 -4 0 -8 10 -8 22
0 12 -16 36 -35 54 -19 17 -35 37 -35 43 0 22 36 10 62 -21 14 -18 30 -30 34
-26 16 17 36 120 41 218 5 88 2 117 -16 181 -24 87 -28 205 -7 234 17 23 79
15 111 -15 27 -25 31 -25 38 0 4 15 14 20 39 20 53 1 165 45 224 90 89 67 146
158 186 297 20 67 23 102 23 245 0 185 -5 202 -50 178 -14 -7 -28 -11 -31 -7
-4 3 -1 36 6 71 14 74 7 126 -21 172 l-19 31 47 74 c49 79 83 156 83 189 0 28
-28 25 -57 -6 -13 -14 -26 -24 -29 -21 -3 3 9 40 26 84 17 43 35 108 39 145 5
50 13 74 30 92 12 13 29 41 36 63 12 35 12 38 -6 41 -11 2 -34 -6 -53 -17 -43
-27 -66 -27 -66 -1 0 33 25 71 84 130 44 42 56 61 56 85 0 63 -15 64 -71 8
-28 -29 -56 -53 -62 -53 -6 0 -19 7 -28 16 -18 16 -15 20 45 93 88 106 132
177 160 263 27 82 37 169 19 175 -7 3 -24 -10 -39 -26 -15 -17 -36 -31 -47
-31 -16 0 -19 5 -13 30 11 59 -37 23 -78 -58 -13 -26 -32 -54 -40 -61 -20 -17
-20 -14 -1 40 9 24 29 98 45 164 35 150 59 212 104 278 35 51 36 53 38 167 l3
115 -31 3 -31 3 -7 -71 c-7 -69 -9 -73 -59 -123 -29 -29 -71 -76 -95 -105 -46
-55 -71 -75 -111 -87 l-25 -7 23 33 c32 48 108 207 131 273 22 64 12 73 -39
35 -34 -25 -61 -17 -37 10 9 10 23 38 32 63 8 25 35 69 60 98 59 69 62 75 75
161 12 80 30 123 53 132 12 5 14 0 9 -23 -10 -53 11 -31 51 52 36 77 48 140
31 168 -11 19 -46 10 -71 -17 -24 -26 -32 -28 -100 -28 l-74 0 -2 80 c-4 113
2 233 12 259 6 18 0 31 -36 72 -24 27 -52 62 -60 78 -16 30 -16 30 22 60 55
45 110 137 143 241 40 123 95 345 87 352 -3 3 -30 -4 -61 -15 -61 -24 -85 -20
-85 12 0 26 25 230 39 317 21 130 64 252 111 318 17 25 18 30 5 35 -20 7 -19
36 5 96 11 28 20 56 20 63 0 7 -23 25 -52 40 -55 31 -53 31 -84 -25 -8 -16
-19 -28 -24 -28 -6 0 -7 11 -3 28 21 81 -3 241 -49 322 l-19 36 84 84 c120
122 197 262 263 482 13 46 27 91 30 100 10 32 -54 -1 -120 -62 -55 -51 -95
-80 -110 -80 -17 0 51 121 89 158 25 24 45 50 45 58 0 29 40 91 105 163 69 76
95 121 95 165 0 59 -32 31 -135 -119 -27 -38 -71 -94 -99 -122 -48 -50 -53
-53 -101 -53 -48 0 -124 -23 -232 -71 -58 -25 -71 -22 -52 13 33 62 101 135
219 237 72 61 130 118 130 126 0 9 25 42 56 76 35 38 53 66 50 76 -3 8 -6 19
-6 24 0 24 -26 1 -100 -88 -73 -89 -151 -163 -170 -163 -4 0 14 89 39 199 38
159 52 205 74 230 29 34 27 64 -3 53 -10 -4 -37 -24 -59 -44 l-41 -37 0 28 c0
15 11 61 25 101 14 40 25 84 25 96 0 12 28 69 62 126 130 219 227 458 282 696
14 62 14 63 -7 72 -32 12 -47 -13 -47 -80 0 -93 -105 -349 -229 -559 -62 -106
-184 -281 -195 -281 -3 0 -2 16 1 35 8 50 -1 69 -26 53 -65 -40 8 84 88 151
36 30 49 50 59 87 7 27 31 87 53 134 31 66 39 92 34 118 -5 26 0 41 26 78 36
53 65 134 47 134 -6 0 -25 -16 -42 -36 -61 -73 -79 -89 -84 -76 -7 23 67 197
97 226 20 19 31 42 36 74 4 26 25 99 46 162 22 63 49 151 59 195 20 79 27 215
12 215 -4 0 -17 -7 -29 -15 -27 -19 -39 -63 -48 -170 -4 -44 -16 -100 -26
-124 -11 -24 -22 -62 -26 -84 -6 -42 -78 -173 -117 -215 -22 -25 -67 -52 -86
-52 -14 0 -12 41 5 70 8 14 14 28 15 33 0 14 -37 7 -61 -12 -13 -10 -34 -21
-46 -25 -26 -8 -33 12 -21 64 4 23 2 53 -7 84 -25 82 -20 162 14 226 16 30 43
100 60 155 73 235 101 472 82 687 -16 191 -29 227 -59 165 -11 -22 -11 -52 -1
-166 15 -164 4 -329 -35 -511 -32 -148 -56 -225 -118 -373 -41 -96 -53 -116
-59 -100 -17 46 -26 29 -32 -57 -3 -50 -12 -101 -21 -117 -14 -26 -15 -22 -10
72 7 112 20 179 34 170 13 -8 14 -17 -15 158 -25 154 -48 249 -79 322 l-17 40
-20 -24 c-11 -13 -22 -21 -25 -18 -3 3 -8 90 -11 194 -4 175 -3 202 26 390 17
112 31 219 31 238 0 30 -3 35 -24 35 -15 0 -27 -7 -30 -17z m4 -919 c75 -243
107 -464 91 -630 -15 -157 -31 -208 -78 -254 -22 -22 -59 -69 -84 -105 -24
-35 -47 -65 -52 -65 -15 0 -29 49 -23 83 4 19 16 47 28 63 25 31 26 84 2 121
-17 27 -18 127 -3 242 6 45 9 84 6 87 -2 3 -13 -12 -23 -33 -17 -33 -19 -63
-20 -233 0 -164 -3 -202 -18 -237 -10 -24 -21 -43 -25 -43 -12 0 -52 71 -82
148 -17 42 -44 103 -61 134 -22 41 -28 62 -21 70 6 7 13 58 17 113 13 212 101
497 170 555 13 10 16 10 16 -4 0 -9 9 -35 20 -57 l21 -40 -21 -29 c-33 -46
-69 -136 -91 -224 -23 -98 -38 -293 -21 -282 17 11 30 70 42 193 12 131 18
150 99 310 55 110 61 129 61 185 l1 63 14 -33 c8 -18 24 -63 35 -98z m93 -137
c8 -42 11 -77 7 -77 -12 0 -38 88 -45 150 -6 52 -5 54 9 30 8 -14 21 -61 29
-103z m-657 -43 c10 -21 42 -55 72 -78 31 -23 73 -57 94 -76 37 -33 38 -37 27
-68 -6 -17 -9 -52 -7 -77 4 -51 -11 -60 -32 -20 -7 14 -17 25 -22 25 -12 0 -1
-35 23 -74 11 -17 19 -46 19 -64 l0 -34 -36 43 c-70 84 -135 243 -149 364 -4
33 -9 68 -11 78 -9 30 4 19 22 -19z m-44 -182 c38 -49 44 -64 40 -91 -4 -27 4
-45 47 -106 57 -82 64 -101 25 -64 -42 39 -111 140 -132 194 -27 69 -42 125
-33 125 4 0 28 -26 53 -58z m-178 -289 c11 -45 14 -48 47 -51 34 -3 37 -6 53
-60 25 -81 97 -213 157 -288 28 -36 53 -63 56 -60 6 6 -23 61 -68 127 -35 52
-159 294 -159 312 0 18 24 4 58 -33 20 -23 42 -38 50 -35 18 7 110 -82 171
-164 130 -177 184 -372 137 -495 -18 -47 -19 -48 -55 -43 -20 3 -44 8 -53 12
-13 5 -18 2 -18 -8 0 -9 8 -18 18 -20 9 -3 3 -5 -13 -6 -19 -1 -51 12 -85 33
-30 19 -57 33 -59 31 -8 -9 47 -47 128 -88 64 -32 79 -43 62 -45 -12 -2 -51 8
-87 22 -35 14 -68 26 -73 26 -5 0 -23 13 -40 29 -16 15 -43 34 -58 40 -63 27
-179 235 -208 370 -8 40 -15 100 -15 134 l0 62 64 -132 c109 -222 194 -328
311 -382 83 -39 118 -47 113 -25 -2 11 -20 21 -49 28 -112 29 -271 198 -328
350 -28 75 -94 430 -76 414 3 -3 12 -28 19 -55z m1370 -65 c-3 -13 -23 -41
-43 -63 -23 -25 -43 -62 -55 -100 -49 -164 -73 -196 -208 -279 -42 -26 -88
-60 -102 -76 -49 -59 -50 -23 -2 49 20 29 29 51 22 51 -14 0 -48 -36 -91 -95
-53 -74 -70 -68 -62 19 5 56 4 59 -10 41 -11 -16 -14 -41 -10 -115 3 -63 -2
-139 -15 -225 -10 -71 -16 -140 -13 -152 3 -15 1 -23 -7 -23 -7 0 -19 -9 -26
-20 -7 -11 -18 -20 -25 -20 -11 0 -11 11 -1 63 17 80 17 120 0 188 -15 55 -14
58 14 130 27 71 56 196 47 205 -3 3 -14 -10 -26 -28 -17 -27 -21 -30 -22 -13
-3 47 5 73 37 125 37 60 43 80 18 59 -19 -16 -47 -69 -75 -144 -24 -63 -43
-74 -33 -17 18 98 77 195 168 278 65 59 191 127 264 143 40 8 42 8 29 -7 -7
-10 -47 -55 -88 -102 -114 -129 -215 -280 -189 -280 17 0 48 37 74 87 13 26
44 68 69 91 40 40 340 248 360 251 5 1 5 -9 1 -21z m-860 -223 c20 -30 20 -35
1 -35 -8 0 -19 9 -25 19 -23 43 -3 57 24 16z m802 -79 c3 -8 -6 -53 -21 -101
-73 -240 -182 -384 -346 -459 -30 -14 -70 -29 -87 -32 l-32 -6 0 54 c0 146 54
223 270 388 89 68 168 134 177 147 17 26 31 29 39 9z m-655 -244 c52 -226 36
-567 -35 -717 l-24 -50 -11 28 c-6 15 -17 30 -25 33 -20 8 -42 77 -62 194 -31
179 -3 373 66 468 25 35 30 51 30 101 0 33 3 67 6 76 9 24 30 -26 55 -133z
m604 -264 c-2 -7 -13 -51 -25 -98 -63 -251 -163 -443 -302 -575 l-73 -70 -3
63 c-2 43 -7 62 -16 62 -29 0 -64 -43 -96 -115 -38 -87 -45 -84 -53 23 -8 96
9 237 33 287 13 26 16 43 10 49 -17 17 -11 26 15 26 14 0 25 4 25 9 0 34 291
253 306 230 11 -18 -7 -83 -32 -119 -13 -20 -55 -62 -93 -94 -68 -56 -101 -94
-101 -116 0 -17 28 -11 39 8 6 10 11 12 11 4 0 -7 -12 -30 -26 -52 -14 -21
-24 -45 -22 -52 7 -19 51 33 93 108 19 34 48 73 63 85 16 13 22 23 15 26 -7 3
13 29 46 61 59 59 122 144 160 220 20 40 35 57 26 30z m-1524 -331 c24 -20 99
-121 99 -132 0 -15 -29 -1 -40 19 -13 25 -40 43 -40 27 0 -4 9 -16 20 -26 11
-10 20 -25 20 -34 0 -12 -3 -12 -12 -3 -15 15 -48 16 -48 2 0 -5 -4 -10 -9
-10 -11 0 -17 17 -27 74 -6 36 -5 38 15 31 27 -8 28 10 1 32 -20 17 -27 43
-12 43 4 0 19 -10 33 -23z m118 -77 c23 -42 23 -44 -3 -34 -15 6 -86 113 -86
130 0 15 67 -57 89 -96z m1386 50 c3 -5 -2 -24 -11 -41 -8 -17 -26 -95 -39
-173 -12 -77 -28 -160 -34 -183 -14 -50 -103 -166 -182 -237 -54 -49 -144
-106 -166 -106 -34 0 4 93 50 123 36 23 137 118 137 128 0 19 -18 7 -88 -57
l-72 -66 0 31 c0 24 15 44 77 105 87 86 93 115 8 37 -52 -47 -92 -70 -68 -38
6 6 57 72 115 145 58 73 139 180 179 237 41 57 77 104 81 105 4 0 10 -4 13
-10z m-639 -269 c-8 -75 -19 -93 -36 -61 -10 18 -9 36 0 84 16 75 20 83 33 61
5 -10 7 -45 3 -84z m-865 9 c20 -11 54 -68 45 -77 -3 -3 -17 3 -32 13 -14 11
-40 27 -57 36 -21 12 -26 18 -14 18 9 0 17 5 17 10 0 13 16 13 41 0z m937
-455 c2 -203 -10 -291 -43 -341 l-20 -29 -9 75 c-9 73 -9 74 -22 45 -7 -16
-13 -38 -14 -47 0 -10 -4 -18 -10 -18 -15 0 -12 37 7 73 17 33 27 160 11 151
-4 -3 -8 -13 -8 -23 0 -10 -7 -24 -15 -31 -12 -10 -14 -2 -17 57 -3 64 -4 66
-16 40 -6 -16 -12 -67 -13 -115 0 -84 -1 -86 -14 -52 -18 48 -18 185 0 265 27
115 83 247 144 339 l26 40 6 -120 c4 -65 7 -204 7 -309z m140 335 c5 -65 -16
-204 -43 -295 -30 -97 -40 -114 -56 -98 -9 9 -8 22 4 57 13 39 14 52 2 103 -8
32 -14 72 -15 88 0 36 78 197 94 192 6 -2 12 -23 14 -47z m-818 -144 c0 -43
18 -102 34 -115 11 -9 18 -3 33 28 l20 40 57 -34 c158 -95 278 -252 347 -454
32 -91 24 -133 -47 -256 -51 -89 -84 -173 -84 -216 l0 -28 -70 24 c-107 36
-169 74 -241 146 -77 76 -138 188 -168 310 -18 69 -41 259 -41 332 0 70 84 -7
94 -87 17 -123 101 -312 180 -401 30 -34 35 -37 36 -19 0 11 -12 36 -26 55
-14 19 -33 48 -41 64 -15 29 -15 29 2 15 10 -8 41 -46 70 -85 65 -87 110 -131
120 -115 4 6 15 8 26 5 15 -5 11 5 -18 46 -57 78 -91 115 -99 107 -3 -4 1 -19
10 -33 28 -42 3 -27 -32 19 -34 46 -99 166 -122 226 -11 30 -14 32 -17 13 -2
-12 1 -32 7 -43 6 -12 9 -24 6 -27 -3 -3 -20 24 -37 60 -57 123 -72 291 -38
435 12 48 14 52 26 36 7 -10 13 -32 13 -48z m1430 -84 c0 -14 -32 -54 -71 -90
-24 -21 -43 -49 -49 -73 -7 -26 -24 -49 -50 -70 -38 -31 -52 -59 -30 -59 20 0
9 -29 -32 -83 -24 -31 -46 -57 -50 -57 -15 0 -8 79 12 142 11 34 20 72 20 83
-1 18 -3 17 -25 -8 -28 -31 -42 -77 -51 -162 -6 -54 -10 -62 -41 -83 -39 -25
-59 -21 -43 9 14 25 11 24 -68 -10 -37 -15 -75 -31 -85 -35 -25 -8 -12 -26 20
-26 21 0 24 -2 13 -15 -7 -8 -24 -15 -38 -15 -37 0 -15 -18 28 -22 l35 -4 -35
-16 -35 -16 33 -1 c19 -1 64 13 102 29 93 41 94 40 86 -22 -3 -29 -6 -65 -6
-79 0 -24 -6 -28 -70 -43 -38 -10 -97 -21 -132 -25 l-63 -8 39 -8 c21 -4 70
-5 110 -1 43 3 65 2 56 -3 -29 -18 -144 -32 -199 -26 l-56 6 3 166 c2 91 9
187 16 214 11 40 11 49 0 49 -7 0 -16 -9 -19 -20 -6 -20 -25 -28 -25 -11 0 4
36 47 80 94 114 122 232 197 394 251 107 36 120 33 69 -12 -24 -21 -43 -41
-43 -45 0 -13 54 15 99 52 65 53 101 73 101 53z m-1644 -136 c19 -19 34 -44
34 -56 0 -21 -2 -21 -42 12 -46 38 -68 78 -42 78 9 0 31 -15 50 -34z m-6 -76
c34 -34 22 -52 -21 -30 -20 11 -27 50 -9 50 6 0 19 -9 30 -20z m1664 -52 c-35
-98 -96 -211 -155 -289 -27 -35 -63 -85 -80 -111 -19 -30 -38 -48 -50 -48 -29
0 -23 16 16 40 19 12 35 28 35 36 0 19 -19 18 -41 -2 -34 -31 -49 -11 -49 66
0 67 2 73 31 97 17 14 69 71 116 125 55 64 103 109 136 128 29 16 55 30 59 30
4 0 -4 -33 -18 -72z m-708 -225 c-2 -10 -7 -61 -11 -113 -14 -224 -41 -426
-56 -436 -9 -5 -45 87 -59 152 -17 74 -14 208 6 266 23 70 139 195 120 131z
m339 -23 c-9 -10 -37 -26 -62 -34 -41 -14 -44 -14 -32 1 8 9 34 29 59 44 46
29 66 23 35 -11z m-530 -197 c1 -73 8 -108 40 -203 39 -115 39 -115 43 -307 2
-121 0 -193 -6 -193 -19 0 -33 28 -39 78 -6 57 -16 77 -32 68 -15 -10 -14 -37
5 -108 8 -33 14 -74 12 -92 l-3 -31 -23 35 c-12 19 -32 67 -44 105 -34 109
-51 105 -22 -5 5 -21 2 -20 -19 10 -98 140 -84 421 35 683 21 45 35 64 41 58
6 -6 11 -50 12 -98z m-737 -50 c5 -29 6 -53 1 -53 -10 0 -29 65 -29 100 0 40
18 10 28 -47z m132 -13 c47 -24 60 -41 28 -37 -17 1 -23 -3 -22 -15 2 -25 -11
-22 -30 7 -22 33 -39 33 -24 0 15 -33 3 -43 -23 -19 -20 18 -49 72 -49 93 0
12 73 -5 120 -29z m1140 -70 c0 -57 -12 -64 -35 -19 -10 19 -22 29 -30 25 -31
-11 -24 15 7 29 53 23 58 20 58 -35z m99 -38 c5 -20 12 -95 15 -167 l5 -130
-50 -35 c-92 -64 -189 -192 -255 -336 -46 -101 -58 -97 -51 19 7 123 40 224
122 367 96 168 147 278 153 329 l5 45 23 -27 c13 -15 28 -44 33 -65z m-1268
-134 c8 -3 41 -27 73 -53 51 -42 65 -61 103 -144 24 -52 64 -123 88 -156 50
-71 127 -144 133 -127 5 16 -29 70 -68 107 -39 37 -88 123 -151 267 -53 120
-76 157 -64 100 7 -32 6 -34 -16 -27 -57 18 -119 91 -119 140 0 20 43 20 60 0
7 -9 21 -13 31 -10 15 5 19 1 19 -20 0 -21 3 -25 23 -20 16 4 29 -1 47 -19 14
-16 34 -26 50 -26 22 0 34 -11 65 -61 20 -33 73 -104 117 -157 45 -53 101
-127 125 -163 44 -66 92 -184 93 -226 0 -12 9 -27 20 -33 11 -6 20 -16 20 -22
0 -6 -26 -43 -59 -82 -63 -76 -94 -131 -106 -184 -6 -31 -9 -33 -38 -27 -74
16 -120 47 -216 143 -91 91 -98 102 -103 146 -3 26 -17 63 -31 84 -20 31 -26
53 -31 133 -7 115 -27 186 -61 223 -14 15 -25 29 -25 32 0 2 17 4 38 4 70 0
71 11 8 95 -68 90 -102 155 -110 210 -6 35 -2 30 32 -41 22 -44 45 -83 53 -86z
m1115 108 c9 -49 -9 -92 -82 -202 -35 -52 -70 -116 -77 -142 -8 -26 -17 -41
-21 -34 -4 7 2 33 14 59 22 51 13 80 -14 42 -14 -21 -25 -64 -57 -229 -11 -56
-46 -130 -61 -130 -5 0 -6 11 -2 24 3 14 7 54 7 89 2 52 -2 69 -18 86 -12 15
-15 25 -9 29 19 13 33 47 45 118 9 51 19 78 40 102 16 18 32 45 35 60 7 29
106 139 139 152 40 17 54 11 61 -24z m290 -273 c13 -50 -15 -145 -79 -273
-134 -268 -219 -360 -359 -384 -36 -7 -38 -6 -38 21 1 57 23 120 87 247 106
212 143 260 253 336 30 21 64 47 74 59 27 30 54 27 62 -6z m-1589 -131 c18
-43 0 -40 -36 7 l-25 33 24 -4 c16 -2 28 -14 37 -36z m1080 -229 c13 -44 6
-202 -11 -297 -34 -177 -76 -269 -76 -164 0 52 -9 43 -25 -24 l-12 -53 -8 59
c-12 89 0 241 25 321 22 72 79 185 92 185 4 0 11 -12 15 -27z m-177 -433 c-12
-191 -14 -207 -36 -230 -12 -14 -34 -45 -47 -69 l-25 -43 40 -116 40 -116 -6
-140 c-7 -132 -6 -149 20 -261 31 -132 36 -233 16 -282 -15 -35 -38 -49 -57
-33 -15 13 -18 9 -35 -45 -11 -33 -14 -36 -20 -20 -4 11 -5 46 -2 78 3 34 1
57 -5 57 -20 0 -33 -53 -33 -133 -1 -81 -1 -82 -17 -53 -18 35 -13 146 11 243
27 109 28 125 9 121 -30 -6 -43 -49 -43 -140 0 -50 -4 -90 -10 -93 -7 -4 -8
-25 -4 -53 l6 -47 -37 37 -37 38 12 65 c7 36 10 69 6 72 -8 9 -26 -43 -27 -80
l0 -32 -15 40 c-30 79 -16 139 69 308 83 164 97 212 97 338 0 43 5 100 11 128
8 40 8 54 -4 73 -21 34 -28 85 -18 151 4 31 4 57 0 57 -13 0 -19 -36 -22 -125
l-2 -80 -19 40 c-16 35 -18 56 -13 168 5 111 4 127 -9 116 -8 -6 -14 -24 -14
-40 0 -33 -15 -39 -23 -9 -16 61 83 250 197 376 40 45 46 58 48 100 1 27 4 2
6 -56 2 -58 -2 -197 -8 -310z m530 216 c-11 -33 -20 -69 -20 -79 0 -26 -24
-16 -28 11 -5 32 -14 27 -50 -23 -28 -39 -52 -58 -52 -39 0 10 106 187 131
218 l23 29 7 -27 c5 -18 1 -49 -11 -90z m-1320 -50 c0 -41 13 -60 37 -52 17 5
20 -2 31 -63 16 -93 82 -293 126 -380 20 -39 32 -71 27 -71 -4 0 -13 10 -19
23 -11 22 -11 22 -11 1 -1 -12 14 -45 33 -73 l34 -51 -41 23 c-22 12 -70 51
-106 87 -95 93 -110 137 -122 350 -4 91 -11 190 -14 220 -6 51 -5 54 9 36 9
-11 16 -34 16 -50z m174 28 c3 -9 6 -35 6 -58 0 -53 36 -112 182 -292 128
-159 162 -208 198 -287 36 -80 50 -150 50 -245 0 -101 -5 -107 -58 -81 -61 30
-105 85 -166 208 -34 67 -66 117 -83 129 -62 44 -185 336 -199 470 -5 41 -2
72 6 92 10 23 10 34 1 43 -17 17 -13 25 17 30 15 2 30 5 33 6 4 0 10 -6 13
-15z m1156 -214 c-18 -82 -62 -166 -134 -255 -35 -44 -92 -113 -125 -154 -63
-78 -129 -191 -112 -191 6 0 54 54 107 120 53 66 100 120 104 120 15 0 32
-100 26 -144 -4 -24 -18 -58 -31 -75 -27 -38 -105 -98 -105 -82 0 6 22 27 50
47 43 31 70 68 58 80 -2 2 -35 -22 -74 -52 -72 -58 -133 -94 -158 -94 -16 0
-27 42 -50 204 -8 54 -17 101 -20 104 -3 2 -10 -6 -15 -19 -9 -23 -10 -23 -10
7 -1 21 12 48 44 90 44 59 55 84 34 84 -23 0 -67 -62 -105 -144 -38 -86 -54
-95 -54 -31 0 77 133 269 219 317 30 17 53 39 60 57 10 22 21 30 48 34 19 4
64 25 100 48 48 32 67 39 73 30 13 -21 44 -8 60 25 l15 32 3 -52 c2 -28 -2
-76 -8 -106z m-956 58 c16 -26 5 -29 -63 -17 -60 11 -69 21 -26 32 36 9 78 2
89 -15z m154 -93 c-12 -26 -22 -25 -38 6 -10 17 -7 19 19 19 29 0 30 -1 19
-25z m922 -24 c0 -20 -50 -219 -71 -281 -26 -80 -42 -112 -86 -173 -51 -69
-53 -50 -4 32 47 79 65 121 51 121 -11 0 -50 -49 -50 -64 0 -6 -10 -27 -22
-46 l-21 -35 -13 30 c-19 43 -16 114 5 162 11 23 43 76 71 118 28 42 58 92 66
111 12 28 20 34 44 34 17 0 30 -4 30 -9z m-890 -131 c0 -16 -4 -30 -10 -30 -5
0 -10 14 -10 30 0 17 5 30 10 30 6 0 10 -13 10 -30z m-785 -80 c15 -36 32 -71
37 -77 16 -20 -7 -16 -24 5 -21 23 -64 110 -72 147 -7 30 -7 30 13 10 10 -11
31 -49 46 -85z m134 54 c28 -51 81 -101 191 -178 78 -56 146 -123 217 -219 23
-31 79 -88 125 -126 46 -39 88 -79 95 -90 11 -18 8 -21 -43 -32 -130 -29 -269
26 -406 163 -74 72 -88 91 -88 118 0 23 -9 40 -30 60 -36 33 -61 89 -85 190
-10 41 -24 91 -31 112 -7 20 -10 39 -7 42 17 17 41 1 62 -40z m611 1 c0 -46
-7 -54 -28 -33 -13 13 -16 60 -5 71 19 20 33 5 33 -38z m-683 -275 c18 -16 40
-30 48 -30 8 0 15 -4 15 -10 0 -24 -61 3 -99 44 -34 36 -7 33 36 -4z m-42 -89
c-3 -12 -15 -21 -26 -21 -24 0 -24 14 -1 39 20 22 37 11 27 -18z m1096 -119
c13 -103 2 -238 -29 -338 l-18 -59 -17 85 c-35 179 -31 318 10 422 l17 42 13
-31 c7 -17 17 -72 24 -121z m273 49 c-36 -35 -66 -54 -104 -65 -66 -20 -134
-21 -127 -3 2 8 20 11 50 9 51 -4 76 7 156 67 74 56 87 51 25 -8z m68 -32 c13
-24 18 -58 18 -111 0 -110 -20 -102 -32 12 -4 37 -33 27 -96 -32 -29 -28 -56
-48 -58 -45 -8 8 61 137 97 180 17 21 36 36 43 34 6 -2 19 -19 28 -38z m73
-220 c0 -133 -2 -150 -16 -146 -14 4 -16 -6 -16 -62 1 -85 -21 -133 -107 -236
-37 -44 -69 -90 -72 -102 -4 -13 -10 -23 -15 -23 -11 0 -11 3 1 34 5 14 6 26
1 26 -22 0 -52 -75 -76 -194 -10 -50 -36 -9 -42 66 -14 166 73 371 247 583 57
69 58 73 65 149 6 57 10 75 19 66 7 -7 11 -63 11 -161z m-1182 31 c7 0 26 -26
44 -58 17 -31 97 -145 177 -252 173 -230 221 -318 221 -400 0 -44 -6 -65 -25
-93 -14 -20 -27 -37 -30 -37 -3 0 -39 30 -80 66 -41 35 -86 67 -100 70 -44 9
-52 18 -94 102 -23 45 -44 82 -48 82 -19 0 -5 -61 26 -112 48 -81 113 -153
174 -196 52 -35 72 -58 72 -82 0 -17 -62 -5 -126 24 -82 37 -127 94 -212 264
l-77 154 1 91 c0 51 3 148 5 217 4 124 4 125 -28 192 -50 103 -42 113 28 36
33 -38 66 -68 72 -68z m1067 -4 l0 -63 -71 -79 c-137 -152 -161 -203 -179
-381 -6 -57 -18 -123 -27 -144 -8 -22 -13 -43 -9 -46 4 -4 9 3 13 15 13 52 28
11 35 -94 3 -60 11 -138 17 -174 22 -132 10 -288 -29 -359 -18 -34 -29 -9 -19
42 4 23 8 51 8 62 0 17 -2 16 -10 -5 -20 -48 -28 -118 -19 -151 l9 -32 -25 24
c-21 19 -25 31 -22 62 2 26 0 36 -8 33 -18 -7 -29 100 -28 259 0 114 3 139 27
206 l26 77 -20 52 c-25 66 -35 196 -20 272 21 114 84 243 170 346 34 41 157
142 174 142 4 0 7 -29 7 -64z m-810 -218 c53 -101 53 -101 22 -80 -79 57 -133
145 -132 218 l1 29 28 -33 c15 -18 52 -78 81 -134z m1113 -63 c20 0 37 -1 37
-3 0 -2 -11 -18 -24 -35 -32 -42 -57 -96 -91 -189 -15 -43 -33 -78 -40 -78 -7
0 -26 -37 -44 -82 -17 -46 -58 -130 -91 -188 -32 -58 -62 -117 -65 -132 -5
-19 -13 -28 -26 -28 -11 0 -37 -11 -57 -25 -59 -40 -72 -35 -73 33 -1 31 -5
71 -8 87 -6 22 -3 35 11 50 10 12 21 49 27 85 18 128 90 243 235 375 48 44 94
95 103 112 13 29 19 32 42 25 14 -4 43 -7 64 -7z m-1709 -82 c19 -56 20 -63 3
-63 -7 0 -18 21 -24 48 -5 26 -14 56 -18 67 -8 17 -7 18 7 7 9 -7 24 -34 32
-59z m289 -244 c48 -90 104 -185 123 -211 43 -60 114 -112 179 -134 28 -9 51
-18 53 -19 1 -1 -7 -27 -19 -59 -15 -38 -27 -56 -39 -56 -28 0 -94 26 -140 55
-49 31 -58 28 -29 -9 27 -35 87 -65 145 -73 41 -5 44 -7 30 -22 -38 -38 -153
-2 -234 73 -77 70 -120 164 -178 386 -20 74 -44 164 -55 199 -11 35 -17 66
-15 68 2 3 14 0 25 -7 24 -12 28 1 6 20 -8 7 -15 18 -15 24 2 31 85 -89 163
-235z m707 159 c0 -27 -16 -55 -25 -46 -9 9 5 68 16 68 5 0 9 -10 9 -22z
m-978 -49 c28 -33 10 -43 -24 -14 -17 14 -33 24 -36 21 -5 -6 4 -19 49 -77 15
-19 30 -45 34 -59 l8 -25 -23 20 c-40 36 -110 149 -97 158 19 12 71 -1 89 -24z
m903 -76 c11 -11 15 -25 11 -42 -4 -14 -9 -60 -12 -102 -6 -67 -3 -87 26 -180
17 -57 38 -133 46 -169 24 -113 15 -450 -12 -450 -8 0 -14 11 -14 28 -1 38
-16 10 -25 -46 -7 -42 -8 -43 -26 -26 -27 24 -24 105 7 207 3 10 0 17 -9 17
-25 0 -57 -45 -78 -111 -12 -35 -25 -68 -29 -73 -11 -11 -36 39 -45 87 -4 20
-17 49 -28 63 -18 23 -20 40 -20 125 1 54 7 132 13 174 6 42 9 79 7 82 -12 11
-38 -60 -48 -131 -17 -117 0 -258 50 -403 23 -66 41 -128 41 -138 0 -18 -1
-18 -20 0 -34 30 -97 169 -116 251 -25 112 -16 281 20 389 34 100 90 197 149
254 28 28 47 56 50 75 8 54 31 136 39 136 3 0 14 -7 23 -17z m799 -440 c-12
-48 -32 -93 -79 -167 -25 -40 -53 -95 -62 -121 -15 -46 -15 -49 3 -62 17 -12
17 -18 5 -76 -25 -119 -96 -249 -190 -344 -54 -55 -139 -118 -147 -110 -9 9
50 69 106 107 32 21 70 54 85 72 31 36 79 136 89 183 l6 30 -24 -27 c-13 -15
-42 -60 -64 -100 -39 -69 -96 -137 -107 -127 -3 3 6 21 20 39 47 64 -6 50 -60
-16 -33 -40 -80 -74 -103 -74 -16 0 -65 161 -70 229 -5 79 8 128 49 186 38 53
74 76 220 141 154 69 210 109 239 172 25 53 57 92 77 92 10 0 12 -8 7 -27z
m-1477 -101 c31 -67 87 -128 218 -237 62 -51 128 -113 148 -137 41 -50 81
-133 95 -194 8 -38 6 -46 -24 -95 -55 -87 -76 -153 -82 -261 -5 -111 -2 -107
-91 -83 -230 61 -363 247 -434 610 -34 175 -40 225 -28 225 5 0 26 -22 46 -50
36 -48 69 -120 135 -290 42 -108 81 -171 133 -216 32 -27 43 -32 45 -20 5 22
25 20 48 -5 23 -25 74 -53 82 -44 8 8 -45 115 -57 115 -5 0 -11 -6 -14 -12 -6
-17 -36 20 -37 45 0 9 -6 17 -14 17 -13 0 -23 10 -84 90 -29 37 -59 43 -41 8
12 -23 12 -23 -9 -5 -46 41 -78 155 -116 410 -21 139 -22 154 -7 173 25 33 61
15 88 -44z m-258 -156 c13 -13 21 -32 19 -43 -3 -16 -6 -15 -31 9 -26 26 -36
58 -19 58 5 0 19 -11 31 -24z m1091 -152 c0 -8 -12 -38 -27 -67 -23 -43 -28
-48 -31 -29 -2 12 6 37 17 56 12 18 21 41 21 50 0 10 5 14 10 11 6 -3 10 -13
10 -21z m-1180 -101 c20 -22 28 -39 21 -41 -20 -7 -37 5 -59 42 -29 49 -5 48
38 -1z m998 -95 c61 -257 81 -460 63 -618 -20 -170 -47 -218 -65 -114 -4 27
-11 56 -14 64 -11 26 -13 -67 -4 -121 6 -29 7 -62 3 -73 -12 -31 -72 143 -78
227 -3 37 -9 67 -14 67 -18 0 -21 -55 -5 -111 9 -32 16 -67 16 -76 -1 -31 -29
15 -47 77 -21 74 -20 74 -52 38 l-28 -31 -17 44 c-10 24 -22 68 -27 97 -19
123 44 310 149 441 35 43 52 74 52 92 0 39 20 129 29 129 4 0 21 -60 39 -132z
m846 32 c-27 -143 -121 -274 -278 -385 -64 -45 -70 -47 -82 -31 -12 17 -15 17
-64 1 -87 -29 -110 3 -37 53 53 37 262 254 342 355 55 69 63 76 96 76 l37 1
-14 -70z m-615 -105 c44 -135 54 -202 49 -317 -5 -122 -28 -185 -90 -244 -36
-35 -40 -37 -33 -14 4 14 14 40 21 59 14 34 14 34 -5 17 -10 -9 -36 -58 -57
-109 -32 -74 -40 -87 -42 -65 -2 16 8 72 22 127 19 74 25 120 24 187 -2 73 3
106 27 184 25 82 29 110 27 200 -1 95 0 103 14 85 8 -11 27 -60 43 -110z
m-130 -109 l-1 -101 -18 40 c-25 53 -34 132 -20 170 11 29 12 29 26 11 10 -14
14 -48 13 -120z m634 -199 c34 1 36 -1 25 -15 -7 -10 -23 -26 -36 -37 -17 -15
-35 -55 -58 -133 -64 -212 -152 -362 -258 -442 -58 -44 -165 -97 -213 -106
-18 -3 -36 -11 -42 -18 -10 -12 -51 -85 -51 -90 0 -2 14 -9 30 -16 26 -11 30
-17 30 -52 0 -29 -7 -45 -26 -63 -15 -14 -31 -25 -35 -25 -25 0 -109 -215
-129 -327 -16 -86 -9 -277 11 -318 24 -49 36 -41 28 17 -13 90 -10 282 6 363
19 103 52 171 108 224 26 25 52 60 58 78 6 18 22 42 36 53 29 23 83 29 65 7
-7 -9 -3 -37 15 -97 23 -74 26 -104 27 -230 0 -108 -4 -166 -18 -225 -27 -118
-73 -237 -117 -305 l-39 -61 -46 3 c-43 3 -47 5 -59 42 -8 21 -27 53 -44 70
-17 18 -31 38 -31 46 0 10 -3 11 -11 3 -8 -8 -7 -25 6 -63 9 -28 15 -54 12
-56 -9 -10 -59 65 -72 108 -7 24 -18 82 -25 130 -11 78 -14 87 -35 92 -17 4
-33 24 -54 69 -29 60 -172 228 -185 216 -3 -3 24 -40 60 -84 106 -127 108
-131 94 -166 -7 -16 -19 -33 -28 -38 -12 -7 -7 -17 28 -55 24 -25 40 -49 37
-52 -3 -3 -27 9 -53 27 -32 23 -48 30 -51 22 -11 -33 -110 2 -170 60 -37 34
-44 24 -12 -17 35 -45 129 -93 197 -101 40 -4 66 -13 78 -26 25 -28 11 -34
-53 -20 -153 33 -265 127 -346 292 -43 90 -142 358 -134 366 2 2 48 -43 102
-99 120 -126 357 -350 363 -343 3 2 -1 18 -8 35 -16 38 -94 110 -164 149 -29
17 -57 41 -63 53 -6 13 -39 57 -73 98 -35 41 -69 89 -76 107 -16 38 -19 103
-4 103 6 0 10 -4 10 -10 0 -23 69 -84 189 -164 134 -89 195 -148 206 -197 4
-16 20 -42 36 -58 16 -16 29 -37 29 -46 0 -19 31 -75 41 -75 11 0 39 89 45
146 5 37 2 61 -9 83 -14 29 -14 31 1 29 12 -2 32 28 73 107 32 61 71 124 88
142 19 20 27 35 20 39 -8 4 -8 9 0 17 20 20 11 27 -35 27 -38 0 -45 3 -42 17
2 11 15 20 33 23 32 6 36 23 6 28 -12 2 -36 -11 -59 -33 l-40 -36 -77 16
c-140 29 -219 68 -302 149 -63 60 -72 44 -10 -18 47 -47 153 -110 232 -139
l50 -18 -97 6 -96 6 -98 99 c-118 119 -144 159 -144 220 0 27 -8 58 -20 78
-13 20 -20 50 -20 80 0 58 -23 148 -51 204 l-21 41 24 -8 c12 -4 41 -10 63
-12 29 -4 52 -17 85 -47 25 -23 114 -97 197 -164 137 -111 253 -223 253 -244
0 -4 5 -8 10 -8 17 0 -36 93 -83 146 -25 28 -64 63 -86 79 -23 15 -39 30 -37
32 11 11 133 -66 185 -116 65 -63 98 -124 114 -211 11 -55 14 -60 38 -60 31 0
39 15 39 74 0 46 39 176 75 246 32 63 80 120 126 152 22 14 56 41 76 58 20 18
82 54 137 80 56 26 112 59 126 73 20 20 31 24 55 19 17 -4 47 -6 68 -5z
m-1359 -51 c-8 -21 -32 -28 -55 -16 -31 17 -22 30 21 30 30 0 38 -3 34 -14z
m1391 -156 c4 -6 -2 -25 -13 -43 -10 -17 -31 -81 -47 -142 -48 -192 -107 -298
-200 -360 -43 -28 -55 -42 -53 -58 2 -17 -2 -21 -17 -20 -63 7 -168 4 -177 -5
-7 -7 -24 -4 -54 11 l-43 21 81 43 c185 99 315 222 391 370 24 49 50 106 57
128 6 22 13 46 15 53 5 14 51 16 60 2z m-1451 -265 c11 -8 17 -18 13 -22 -10
-10 -59 15 -52 27 8 13 16 12 39 -5z m112 -375 c38 -32 74 -59 81 -60 7 0 33
11 59 25 l46 25 39 -31 c60 -47 107 -107 145 -184 33 -69 69 -195 55 -195 -4
0 -20 26 -35 59 -17 35 -40 65 -57 75 -16 9 -29 23 -29 30 0 20 -37 62 -46 53
-5 -4 -2 -17 5 -28 23 -38 3 -32 -46 14 -27 25 -61 51 -76 56 -15 6 -29 21
-33 36 -5 20 -12 25 -37 25 -62 0 -140 66 -162 138 -11 37 16 26 91 -38z m594
-12 c0 -24 -16 -56 -23 -48 -3 3 -8 20 -12 38 -6 28 -4 32 14 32 15 0 21 -6
21 -22z m645 -30 c9 -43 10 -73 2 -155 -8 -78 -10 -83 -40 -102 -45 -28 -93
-80 -183 -201 -112 -149 -106 -144 -99 -85 15 111 85 287 158 395 40 59 136
170 148 170 5 0 11 -10 14 -22z m-161 -9 c8 -12 19 -18 25 -14 6 3 11 -1 11
-9 0 -10 -15 -17 -45 -22 -25 -3 -49 -4 -52 -1 -9 10 18 67 33 67 7 0 20 -9
28 -21z m-24 -117 c0 -26 -31 -79 -65 -112 -23 -22 -35 -29 -35 -19 0 28 29
114 51 149 20 32 22 33 35 15 8 -10 14 -25 14 -33z m253 -153 c9 -68 0 -201
-19 -276 -23 -90 -78 -198 -130 -253 -26 -28 -49 -48 -51 -46 -2 2 17 37 43
77 62 97 101 182 112 247 17 96 -25 50 -52 -57 -21 -82 -59 -151 -119 -217
-46 -50 -113 -101 -122 -92 -2 2 25 40 61 83 66 79 108 155 101 184 -2 10 -17
-7 -41 -44 -96 -152 -158 -235 -176 -235 -13 0 5 62 30 103 12 20 17 37 11 37
-6 0 -18 -15 -28 -32 -27 -52 -29 -8 -2 49 13 26 27 57 31 68 l9 20 -20 -20
c-11 -11 -36 -47 -55 -79 -32 -54 -36 -57 -36 -31 0 15 11 42 23 59 13 17 52
80 86 141 68 119 122 196 134 188 15 -9 6 -59 -29 -145 -20 -49 -34 -92 -31
-95 11 -10 65 88 103 185 20 54 45 114 55 134 25 49 79 110 93 105 6 -2 14
-28 19 -58z m-1418 -244 c50 -78 85 -118 85 -98 0 6 -22 41 -50 78 -27 37 -50
76 -50 87 0 34 71 -17 103 -74 43 -77 191 -182 322 -229 48 -18 64 -29 78 -56
19 -37 22 -63 8 -63 -5 0 -18 -3 -28 -7 -15 -6 -16 -4 -6 9 16 18 7 28 -24 28
-14 0 -21 4 -18 10 3 6 17 10 31 10 13 0 24 5 24 10 0 14 -67 13 -76 -1 -4 -8
-26 -10 -63 -6 -31 4 -63 2 -71 -3 -22 -13 -65 24 -103 88 -28 48 -40 59 -78
72 -58 20 -69 27 -69 50 0 11 -20 44 -45 75 -48 58 -65 92 -65 127 0 20 1 20
21 -3 12 -13 45 -60 74 -104z m125 -238 c0 -17 -63 39 -72 64 -8 20 -3 18 31
-16 23 -21 41 -43 41 -48z m840 -131 c0 -17 -7 -26 -26 -30 -36 -9 -38 -4 -12
27 29 33 38 33 38 3z m-340 -262 c52 -57 93 -146 114 -247 23 -111 22 -121
-11 -112 -53 13 -63 28 -93 153 -13 50 -27 55 -32 10 l-3 -32 -19 28 c-11 17
-21 55 -24 92 -5 68 4 154 17 154 5 0 27 -21 51 -46z m169 -83 c13 -40 15
-220 2 -240 -15 -24 -31 52 -37 184 -6 106 -5 118 8 105 9 -8 20 -30 27 -49z
m112 -458 c13 -34 5 -91 -25 -180 -14 -42 -25 -62 -30 -54 -4 7 -2 26 4 42 7
16 10 32 6 36 -3 3 -20 -26 -37 -65 -18 -40 -36 -72 -40 -72 -28 0 -29 131 -1
193 20 45 87 127 103 127 5 0 14 -12 20 -27z m-236 -556 c37 -87 40 -112 11
-88 -11 9 -20 9 -34 2 -24 -13 -44 7 -62 62 -6 21 -18 41 -26 44 -19 7 -18 54
3 127 l17 60 27 -59 c15 -33 44 -100 64 -148z m85 -160 c0 -41 -3 -50 -20 -54
-11 -3 -20 -12 -20 -19 0 -8 9 -14 20 -14 11 0 20 -7 20 -15 0 -17 -46 -21
-70 -5 -13 8 -11 20 13 88 15 43 27 89 28 102 1 48 28 -30 29 -83z m-20 -236
c0 -20 -5 -43 -10 -51 -9 -13 -11 -13 -20 0 -11 17 -13 103 -3 114 13 13 33
-27 33 -63z m127 -56 c5 -47 4 -57 -8 -51 -8 3 -22 9 -31 12 -21 7 -23 45 -7
93 10 28 13 31 26 18 8 -7 17 -40 20 -72z m-92 -85 c-11 -5 -33 -9 -50 -9 -26
0 -27 2 -10 9 11 5 34 9 50 9 26 0 27 -2 10 -9z"/>
<path d="M3534 11263 c-9 -107 -5 -200 8 -158 17 54 30 161 25 201 -9 86 -23
68 -33 -43z"/>
<path d="M3235 11168 c8 -36 -8 -30 -19 7 -3 11 -3 -7 -1 -40 6 -82 21 -129
51 -165 42 -49 61 -11 27 53 -10 18 -20 63 -23 102 -4 58 -8 70 -23 73 -17 3
-18 -1 -12 -30z"/>
<path d="M3541 10826 c-13 -13 -21 -32 -19 -43 3 -14 8 -10 27 20 28 45 24 57
-8 23z"/>
<path d="M3842 10510 c-6 -11 -43 -36 -82 -55 -62 -31 -70 -38 -68 -62 2 -14
-2 -28 -8 -30 -6 -2 -20 -11 -30 -19 -17 -14 -15 -14 24 -8 37 5 55 17 118 80
44 43 74 82 74 94 0 25 -12 26 -28 0z"/>
<path d="M2810 9356 c0 -11 -9 -30 -21 -42 l-21 -22 29 -44 c16 -24 47 -74 68
-113 46 -84 87 -144 98 -145 18 0 -8 69 -64 177 -33 62 -59 126 -59 141 0 16
-7 37 -15 48 -14 19 -14 19 -15 0z"/>
<path d="M2780 8692 c0 -7 20 -35 45 -61 50 -54 61 -81 15 -36 -16 16 -30 24
-30 17 0 -19 72 -87 123 -117 40 -23 51 -26 58 -14 5 8 9 19 9 26 0 21 -49 70
-103 104 -28 18 -67 46 -84 63 -18 16 -33 24 -33 18z"/>
<path d="M2720 7878 c0 -22 54 -146 84 -192 62 -92 245 -251 261 -226 4 6 1
17 -5 25 -11 14 -7 19 13 16 15 -2 6 20 -24 54 -45 51 -188 148 -181 123 5
-20 46 -66 97 -109 17 -13 37 -33 45 -44 13 -17 13 -18 0 -10 -76 44 -179 167
-249 295 -22 41 -41 72 -41 68z"/>
<path d="M2999 6815 c17 -33 38 -70 48 -81 19 -23 73 -60 73 -50 0 6 -89 121
-128 165 -20 23 -19 18 7 -34z"/>
<path d="M2697 6689 c89 -84 165 -129 218 -129 40 0 20 13 -65 41 -56 19 -75
32 -135 96 -39 40 -78 73 -87 73 -11 0 17 -32 69 -81z"/>
<path d="M3806 5777 c-26 -46 -76 -122 -111 -169 -63 -84 -75 -108 -55 -108
25 0 103 104 178 236 53 93 59 109 43 118 -5 3 -30 -32 -55 -77z"/>
<path d="M3654 5625 c-28 -44 -11 -57 19 -14 22 30 25 39 13 39 -9 0 -23 -11
-32 -25z"/>
<path d="M3165 5420 c-15 -24 -19 -155 -5 -180 17 -32 26 -13 34 70 6 70 -11
138 -29 110z"/>
<path d="M3699 5206 c-64 -50 -120 -112 -156 -174 -29 -48 -25 -61 13 -44 17
9 36 35 59 86 29 62 42 79 85 106 46 30 82 70 63 70 -4 0 -33 -20 -64 -44z"/>
<path d="M2762 4609 c8 -13 24 -26 34 -28 17 -3 17 -2 2 20 -8 13 -24 26 -34
28 -17 3 -17 2 -2 -20z"/>
<path d="M2640 4563 c1 -16 124 -104 161 -115 45 -13 62 -5 33 16 -66 49 -194
114 -194 99z"/>
<path d="M3026 4463 c-8 -20 3 -143 13 -143 3 0 7 36 8 80 2 75 -7 101 -21 63z"/>
<path d="M3844 4640 c-50 -50 -88 -90 -85 -90 12 0 76 42 104 69 34 31 91 111
80 111 -4 0 -49 -41 -99 -90z"/>
<path d="M2730 4102 c0 -17 200 -202 260 -241 73 -47 151 -75 182 -65 21 6 21
7 -8 22 -16 8 -48 20 -71 26 -55 14 -270 169 -296 214 -23 39 -67 67 -67 44z"/>
<path d="M3652 4000 c-72 -94 -102 -122 -141 -135 -18 -5 -12 4 24 39 27 25
46 49 42 52 -16 16 -137 -89 -137 -119 0 -7 5 -19 10 -27 8 -13 15 -12 52 8
91 48 187 150 223 235 25 60 1 43 -73 -53z"/>
<path d="M2865 3825 c11 -10 47 -30 80 -46 47 -23 73 -29 120 -28 58 1 59 1
20 9 -22 5 -76 22 -120 38 -44 16 -89 33 -100 37 l-20 7 20 -17z"/>
<path d="M3340 3367 c-28 -90 -39 -165 -38 -247 1 -47 3 -70 5 -52 6 42 23 41
23 -2 0 -45 11 -96 20 -96 12 0 12 235 0 279 -9 34 -8 44 10 73 23 39 25 61 7
77 -11 9 -17 2 -27 -32z"/>
<path d="M2711 3179 c34 -43 104 -99 123 -99 6 0 -21 32 -60 70 -79 77 -114
93 -63 29z"/>
<path d="M2800 3184 c0 -6 67 -66 87 -77 22 -13 1 22 -29 49 -23 21 -58 38
-58 28z"/>
<path d="M3679 3779 l-34 -30 32 16 c31 15 49 32 41 40 -2 3 -20 -9 -39 -26z"/>
<path d="M2821 2845 c13 -13 33 -25 44 -25 18 1 17 3 -8 25 -39 34 -68 34 -36
0z"/>
<path d="M2486 11560 c-23 -153 -24 -173 -15 -197 11 -29 34 -185 44 -293 3
-41 24 -165 46 -275 30 -146 43 -238 48 -343 5 -114 10 -145 24 -159 16 -16
17 -13 17 65 0 53 4 81 10 77 6 -3 10 -27 10 -51 0 -45 2 -47 128 -172 131
-130 185 -200 216 -284 10 -26 26 -58 37 -70 l20 -23 -6 30 c-12 56 -55 138
-141 267 -79 117 -112 160 -84 107 10 -18 9 -19 -7 -11 -27 15 -108 104 -126
138 -17 34 -37 122 -37 166 0 25 -3 29 -20 25 -27 -7 -31 13 -9 49 l19 31 -49
204 c-83 343 -118 563 -105 666 7 61 -11 111 -20 53z"/>
</g>
</svg>
