<?xml version="1.0" standalone="no"?>
<!DOCTYPE svg PUBLIC "-//W3C//DTD SVG 20010904//EN"
 "http://www.w3.org/TR/2001/REC-SVG-20010904/DTD/svg10.dtd">
<svg version="1.0" xmlns="http://www.w3.org/2000/svg"
 width="640.000000pt" height="1280.000000pt" viewBox="0 0 640.000000 1280.000000"
 preserveAspectRatio="xMidYMid meet">
<metadata>
Created by potrace 1.15, written by Peter Selinger 2001-2017
</metadata>
<g transform="translate(0.000000,1280.000000) scale(0.100000,-0.100000)"
fill="#000000" stroke="none">
<path d="M2841 12793 c-24 -9 -96 -83 -82 -83 9 0 5 -11 -11 -32 -13 -18 -28
-40 -33 -48 -8 -13 -7 -13 8 -1 9 7 17 10 17 5 0 -5 13 18 29 52 16 33 41 70
56 82 31 25 34 25 54 13 12 -8 12 -13 -2 -35 -19 -29 -21 -36 -8 -36 5 0 14
13 21 30 20 49 37 57 65 30 14 -13 25 -19 25 -13 0 20 -31 35 -78 38 -26 2
-53 1 -61 -2z"/>
<path d="M3030 12791 c0 -6 4 -13 10 -16 6 -3 7 1 4 9 -7 18 -14 21 -14 7z"/>
<path d="M3242 12793 c-7 -3 -17 -14 -23 -26 -11 -20 -9 -20 16 3 l27 25 24
-30 c13 -16 24 -36 24 -42 0 -7 5 -13 10 -13 14 0 13 7 -5 34 -14 21 -14 25 0
36 12 10 20 9 40 -4 33 -22 58 -63 92 -151 14 -38 30 -71 34 -73 4 -2 6 -9 4
-15 -3 -7 2 -32 9 -57 8 -25 15 -41 15 -36 1 5 9 2 18 -5 12 -10 8 2 -10 35
-29 52 -34 71 -15 60 7 -4 0 13 -15 38 -29 51 -33 63 -15 52 14 -9 5 8 -29 54
-15 19 -19 32 -11 32 6 0 -8 19 -31 42 -39 37 -50 42 -95 43 -28 1 -57 0 -64
-2z"/>
<path d="M3146 12774 c-5 -13 -4 -14 7 -6 8 7 18 8 22 4 5 -4 5 -1 1 6 -10 17
-23 15 -30 -4z"/>
<path d="M2918 12759 c15 -17 16 -33 0 -23 -6 4 1 -11 18 -34 16 -22 30 -37
32 -32 4 12 -35 87 -50 96 -10 6 -11 4 0 -7z"/>
<path d="M3262 12758 c-12 -15 -44 -90 -40 -94 2 -1 16 16 32 39 17 22 24 37
18 33 -16 -9 -16 6 0 22 7 7 9 12 6 12 -3 0 -10 -6 -16 -12z"/>
<path d="M3180 12729 c6 -20 6 -48 0 -73 -15 -64 -12 -87 6 -46 8 19 13 42 11
52 -3 9 4 30 14 47 15 25 16 31 5 31 -8 0 -17 -8 -19 -17 -4 -14 -5 -13 -6 4
0 12 -5 24 -10 28 -6 3 -6 -7 -1 -26z"/>
<path d="M3012 12730 c0 -14 2 -19 5 -12 2 6 2 18 0 25 -3 6 -5 1 -5 -13z"/>
<path d="M3141 12734 c0 -11 3 -14 6 -6 3 7 2 16 -1 19 -3 4 -6 -2 -5 -13z"/>
<path d="M2970 12734 c0 -3 5 -15 12 -27 6 -12 13 -39 14 -60 2 -22 9 -46 15
-53 6 -8 9 -20 6 -28 -3 -7 1 -36 9 -62 l14 -49 -6 45 c-3 25 -7 54 -8 65 -7
70 -35 175 -48 175 -4 0 -8 -3 -8 -6z"/>
<path d="M3052 12715 c0 -16 2 -22 5 -12 2 9 2 23 0 30 -3 6 -5 -1 -5 -18z"/>
<path d="M3131 12694 c0 -11 3 -14 6 -6 3 7 2 16 -1 19 -3 4 -6 -2 -5 -13z"/>
<path d="M2846 12670 c-9 -17 -15 -34 -12 -39 3 -5 -1 -26 -10 -46 -11 -27
-12 -41 -5 -48 8 -8 11 -5 11 9 0 10 9 48 20 83 11 36 18 66 17 68 -2 1 -11
-11 -21 -27z"/>
<path d="M3320 12696 c0 -15 24 -66 31 -66 12 0 11 6 -6 40 -13 26 -25 38 -25
26z"/>
<path d="M2963 12618 c28 -48 35 -74 17 -63 -15 9 -13 2 16 -61 24 -54 28 -89
4 -44 -23 43 -20 12 4 -41 15 -32 25 -46 26 -34 0 17 2 17 10 5 7 -11 10 -7
10 17 0 17 -6 38 -14 45 -7 8 -19 41 -26 74 -16 80 -32 135 -38 129 -3 -3 -12
1 -21 8 -8 6 -3 -9 12 -35z"/>
<path d="M3131 12644 c0 -11 3 -14 6 -6 3 7 2 16 -1 19 -3 4 -6 -2 -5 -13z"/>
<path d="M3235 12650 c-4 -6 -9 -8 -13 -6 -4 2 -14 -18 -23 -45 -8 -27 -12
-49 -8 -49 7 0 -13 -66 -36 -117 -18 -36 -21 -78 -5 -53 8 12 10 12 11 -5 0
-14 6 -8 20 20 23 50 25 77 3 49 -14 -18 -15 -18 -8 6 4 14 15 40 25 59 10 19
16 44 13 56 -3 13 4 37 16 58 12 20 20 37 17 37 -3 0 -9 -5 -12 -10z"/>
<path d="M3062 12620 c0 -19 2 -27 5 -17 2 9 2 25 0 35 -3 9 -5 1 -5 -18z"/>
<path d="M2718 12598 c-28 -43 -40 -71 -29 -64 18 11 13 -8 -16 -60 -21 -37
-23 -45 -9 -34 18 14 18 13 11 -10 -4 -14 -11 -30 -16 -35 -14 -19 -30 -67
-19 -60 15 9 12 -22 -4 -48 -20 -32 -31 -71 -17 -63 16 10 14 -6 -9 -60 -23
-52 -22 -58 0 -41 16 12 55 201 45 217 -3 4 -2 10 3 12 10 4 53 178 46 189 -3
5 -1 9 4 9 10 0 35 60 28 67 -2 2 -10 -7 -18 -19z"/>
<path d="M3351 12600 c0 -8 6 -28 14 -45 10 -23 13 -25 14 -10 0 11 -6 31 -14
45 -8 14 -14 19 -14 10z"/>
<path d="M3160 12555 c0 -11 -2 -38 -5 -60 l-5 -40 15 44 c10 29 11 49 5 60
-8 14 -9 13 -10 -4z"/>
<path d="M3123 12525 c0 -22 2 -30 4 -17 2 12 2 30 0 40 -3 9 -5 -1 -4 -23z"/>
<path d="M3374 12489 c3 -17 6 -35 6 -39 0 -4 6 -10 14 -13 12 -5 12 1 -1 39
-17 51 -28 58 -19 13z"/>
<path d="M2800 12481 c-8 -19 -9 -35 -2 -46 7 -14 10 -8 15 26 7 53 4 59 -13
20z"/>
<path d="M3212 12455 c0 -16 2 -22 5 -12 2 9 2 23 0 30 -3 6 -5 -1 -5 -18z"/>
<path d="M3073 12415 c0 -27 2 -38 4 -22 2 15 2 37 0 50 -2 12 -4 0 -4 -28z"/>
<path d="M3112 12400 c0 -19 2 -27 5 -17 2 9 2 25 0 35 -3 9 -5 1 -5 -18z"/>
<path d="M3516 12400 c3 -19 10 -40 15 -46 5 -6 6 -13 3 -16 -5 -6 10 -98 29
-173 5 -22 11 -51 12 -65 6 -95 8 -113 12 -96 4 15 7 16 14 5 15 -25 10 23 -6
51 -17 30 -20 64 -4 54 13 -8 4 25 -17 68 -17 33 -18 52 -3 42 13 -8 4 25 -17
68 -16 32 -19 62 -4 38 22 -34 9 16 -16 60 l-25 45 7 -35z"/>
<path d="M2781 12377 c-7 -21 -10 -41 -7 -44 8 -8 28 47 23 66 -2 9 -9 -1 -16
-22z"/>
<path d="M2982 12385 c0 -16 2 -22 5 -12 2 9 2 23 0 30 -3 6 -5 -1 -5 -18z"/>
<path d="M3212 12390 c0 -14 2 -19 5 -12 2 6 2 18 0 25 -3 6 -5 1 -5 -13z"/>
<path d="M3394 12380 c3 -19 8 -61 12 -92 3 -33 12 -59 19 -62 11 -4 11 4 0
42 -8 25 -12 55 -10 67 3 11 -2 34 -10 50 l-15 30 4 -35z"/>
<path d="M3030 12342 c0 -7 -4 -10 -10 -7 -14 9 -12 -10 5 -52 18 -42 21 -78
5 -53 -15 23 -12 -6 5 -55 17 -47 19 -69 5 -60 -14 9 -12 -10 5 -52 17 -41 19
-67 5 -58 -14 8 -12 -12 5 -60 10 -28 11 -43 3 -52 -8 -9 -7 -26 2 -59 10 -35
10 -48 1 -53 -8 -5 -7 -20 4 -57 18 -58 18 -67 5 -59 -13 8 -13 -20 1 -69 8
-30 8 -41 -2 -47 -11 -6 -10 -18 4 -62 19 -60 21 -80 7 -57 -17 28 -20 3 -5
-54 18 -69 18 -67 1 -60 -11 4 -12 -2 -5 -33 20 -94 21 -99 10 -83 -8 12 -11
8 -11 -18 0 -18 5 -42 11 -53 7 -15 7 -24 -1 -34 -6 -7 -9 -35 -8 -62 2 -26
-1 -175 -6 -331 -7 -248 -10 -281 -23 -263 -7 11 -96 183 -197 381 -287 562
-411 728 -593 789 -112 38 -195 22 -317 -60 -96 -64 -103 -75 -24 -39 256 115
413 30 642 -348 31 -51 135 -240 232 -420 98 -180 197 -363 222 -407 l44 -80
-7 -440 c-4 -242 -10 -494 -14 -560 l-6 -120 -21 173 c-12 96 -26 178 -32 184
-8 8 -16 1 -30 -21 l-19 -31 -13 42 c-11 39 -54 129 -80 168 -5 8 -20 42 -31
75 -26 71 -71 118 -126 132 -45 11 -117 1 -165 -21 -45 -22 -115 -91 -139
-139 l-19 -37 -33 37 c-37 42 -189 174 -195 168 -2 -2 23 -35 55 -73 32 -38
79 -100 104 -138 45 -67 46 -71 40 -124 -8 -69 -2 -150 11 -150 5 0 9 21 8 48
-2 26 -2 67 -1 92 2 42 3 44 16 26 10 -13 15 -44 15 -88 0 -44 4 -68 11 -68 8
0 10 17 7 50 -3 28 -2 50 1 50 10 0 310 -508 472 -798 l152 -273 -8 -432 c-4
-238 -10 -517 -14 -621 l-6 -189 -116 154 c-413 545 -780 899 -1074 1035 -41
19 -76 34 -79 34 -3 0 36 -39 86 -87 161 -156 281 -301 688 -833 145 -190 315
-410 378 -489 l114 -143 -11 -482 c-6 -264 -18 -596 -27 -736 -12 -194 -14
-336 -9 -590 7 -326 7 -335 -11 -319 -46 39 -236 191 -311 247 -233 176 -536
343 -718 396 -95 28 -305 48 -275 27 8 -6 23 -11 32 -11 56 0 272 -108 388
-194 247 -182 591 -546 867 -916 l41 -55 11 -640 c6 -352 11 -682 11 -732 l0
-93 -890 0 -890 0 0 -75 c0 -43 4 -75 10 -75 7 0 11 -194 12 -557 1 -307 5
-511 8 -453 3 58 7 99 8 91 2 -11 101 -12 635 -7 l632 7 17 32 c29 54 20 20
-11 -41 -39 -77 -135 -203 -282 -372 -190 -217 -271 -335 -256 -373 11 -28 26
-19 51 31 35 69 97 150 240 312 199 225 288 351 334 471 12 30 21 48 21 42 1
-7 -8 -36 -19 -65 -22 -58 -25 -72 -9 -45 12 20 85 24 92 5 2 -7 7 14 11 47
10 85 14 96 15 48 4 -141 -64 -302 -260 -614 -157 -250 -225 -402 -191 -423
13 -8 25 10 46 69 25 68 72 153 184 330 107 168 211 363 237 443 9 30 23 86
30 125 11 63 13 66 14 30 1 -42 2 -43 36 -43 29 0 35 -4 37 -22 1 -13 4 6 8
42 l7 65 1 -88 c3 -158 -32 -278 -178 -612 -97 -222 -140 -346 -140 -406 0
-33 3 -40 17 -37 12 2 20 17 25 47 13 75 47 168 143 386 151 343 184 454 186
620 0 55 4 109 9 120 6 13 8 -5 5 -55 -2 -51 -1 -62 4 -35 7 38 8 36 15 -36
15 -139 -17 -283 -134 -614 -87 -244 -123 -377 -118 -428 5 -49 31 -41 40 13
19 106 44 187 123 404 134 371 154 483 131 721 -4 50 -6 88 -3 85 3 -3 11 -58
17 -122 16 -152 4 -289 -57 -673 -49 -309 -60 -460 -33 -460 12 0 18 24 27
105 6 58 30 215 52 350 62 378 64 403 64 589 -1 96 3 168 7 160 4 -7 10 -113
13 -234 3 -160 15 -305 41 -535 20 -173 36 -340 36 -371 0 -60 18 -91 37 -67
13 16 3 175 -31 488 -15 129 -25 249 -24 265 l1 30 4 -30 c2 -16 31 -140 63
-275 66 -276 80 -346 80 -404 0 -23 4 -47 9 -55 12 -19 41 -6 41 18 0 56 -27
200 -76 407 -81 347 -97 452 -92 614 3 83 9 143 17 155 10 17 11 12 4 -30 -4
-27 -8 -111 -7 -185 0 -166 19 -242 134 -558 83 -229 120 -355 120 -408 0 -38
22 -61 38 -41 8 9 8 32 3 72 -13 86 -24 125 -112 372 -121 341 -134 398 -132
573 0 80 5 159 11 175 8 24 9 17 5 -35 l-5 -65 36 0 36 0 2 100 1 100 7 -120
c12 -210 52 -322 230 -640 101 -180 141 -262 171 -350 30 -89 54 -107 53 -40
-1 54 -49 163 -186 416 -64 118 -132 255 -152 305 -58 147 -77 284 -56 394 7
35 8 23 6 -55 -2 -58 0 -87 4 -70 l8 30 1 -31 c4 -119 85 -304 246 -559 132
-210 182 -301 211 -379 25 -71 50 -82 48 -23 -2 52 -68 181 -199 392 -174 278
-257 470 -253 585 l1 45 6 -45 6 -45 49 -3 c42 -3 48 -1 42 13 -21 56 -12 59
12 4 55 -125 123 -219 341 -467 123 -140 231 -284 231 -308 0 -19 29 -39 41
-27 28 28 -43 140 -206 328 -153 177 -228 269 -281 347 -46 69 -105 198 -103
227 0 13 1 14 6 1 2 -8 14 -39 25 -69 l21 -54 201 7 c111 3 418 9 683 12 l482
7 5 -34 c3 -19 7 -50 9 -69 2 -19 5 195 5 476 1 341 5 513 13 521 5 5 9 38 7
74 l-3 64 -949 3 -949 2 6 573 c4 314 10 925 14 1357 l6 784 300 376 c520 650
835 1017 867 1012 13 -2 21 7 29 31 11 32 178 205 276 286 51 42 29 37 -110
-26 -55 -24 -105 -47 -111 -49 -7 -3 -13 26 -17 88 -12 209 -121 376 -284 439
-86 32 -138 35 -203 9 -69 -27 -111 -66 -163 -155 -23 -38 -67 -95 -97 -126
-30 -30 -80 -97 -111 -147 l-57 -92 -7 46 c-7 46 -27 66 -47 46 -13 -13 -215
-592 -266 -762 -7 -25 -10 149 -11 622 l-1 656 101 129 c56 70 238 306 404
523 371 484 484 621 636 772 l117 117 -51 -20 c-271 -106 -662 -473 -1060
-993 -67 -87 -129 -168 -138 -179 -15 -19 -17 -5 -23 209 -3 126 -9 508 -12
849 l-7 620 123 225 c422 776 542 977 695 1167 175 219 345 305 543 276 85
-13 180 -42 255 -80 27 -13 51 -22 53 -20 9 9 -151 111 -217 139 -38 16 -104
34 -147 40 -167 24 -329 -49 -498 -223 -138 -144 -266 -336 -472 -709 -167
-302 -308 -551 -325 -574 -13 -17 -15 35 -19 410 l-5 429 180 353 c98 194 186
359 194 367 8 8 12 15 8 15 -8 0 106 223 119 232 5 4 16 -1 23 -10 12 -15 12
-13 7 13 -4 17 -8 32 -10 34 -2 2 13 34 33 70 134 240 243 356 317 337 39 -10
91 -62 126 -126 38 -71 38 -58 -1 35 -36 88 -91 145 -139 145 -74 0 -170 -84
-278 -243 -59 -88 -68 -96 -79 -81 -11 16 -13 13 -13 -22 0 -29 -14 -66 -52
-136 -29 -54 -56 -98 -59 -98 -11 0 -20 65 -10 68 9 3 -5 81 -16 92 -3 3 -3
-41 1 -98 l6 -103 -176 -342 c-97 -188 -179 -344 -182 -347 -3 -3 -2 6 2 20
23 80 24 92 10 86 -16 -6 -17 1 -5 40 21 65 22 84 6 78 -17 -7 -20 8 -6 34 17
35 21 82 7 82 -12 0 -12 7 0 47 17 55 18 77 4 68 -13 -8 -13 6 1 62 9 34 9 47
0 52 -9 6 -9 19 1 55 10 38 10 49 0 55 -11 6 -10 18 4 61 14 42 14 54 4 60
-11 7 -11 16 0 55 10 36 10 49 1 54 -8 6 -8 18 4 50 17 50 19 75 5 66 -14 -9
-12 17 5 58 17 42 19 61 5 52 -14 -9 -12 17 5 58 17 42 19 61 5 52 -14 -9 -12
17 5 58 17 42 20 71 5 47 -8 -12 -10 -12 -10 5 0 19 0 19 -15 -2 -9 -12 -14
-41 -13 -74 0 -30 -2 -67 -5 -84 -9 -42 -18 -178 -26 -400 l-8 -190 -4 155
c-2 85 -3 178 -3 205 0 28 -3 52 -7 55 -7 5 -20 182 -19 270 0 26 -6 54 -15
65 -9 12 -14 15 -15 7z m-420 -2518 c-19 -8 -48 -27 -64 -42 -31 -29 -75 -114
-77 -147 0 -11 -3 -14 -6 -8 -2 7 3 36 12 64 23 69 99 149 141 149 l29 -1 -35
-15z m-106 -41 c-31 -47 -52 -97 -59 -138 -12 -71 -15 -77 -31 -64 -20 16 -17
47 10 105 21 45 80 124 93 124 3 0 -3 -12 -13 -27z m125 -27 c-28 -65 -41
-183 -29 -284 5 -47 11 -86 12 -88 2 -1 3 68 3 154 0 130 3 163 18 192 9 19
14 26 11 15 -20 -64 -14 -355 7 -355 5 0 6 12 2 28 -4 15 -7 86 -7 157 -1 103
3 140 17 178 10 26 24 47 31 47 20 0 63 -52 81 -97 15 -38 15 -43 0 -74 -12
-22 -19 -67 -23 -136 l-5 -103 -24 35 c-13 19 -28 35 -34 35 -21 0 -20 -35 4
-153 14 -67 24 -123 23 -125 -2 -1 -27 32 -56 75 -30 43 -66 94 -82 114 -27
35 -28 42 -28 142 0 123 23 213 66 258 15 16 29 29 30 29 2 0 -6 -20 -17 -44z
m-69 10 c0 -2 -8 -10 -17 -17 -16 -13 -17 -12 -4 4 13 16 21 21 21 13z m11
-33 c-26 -53 -41 -131 -41 -220 l0 -76 -22 28 c-20 26 -21 31 -10 102 12 78
41 154 69 185 24 27 25 22 4 -19z m-156 -24 c-13 -24 -25 -52 -25 -61 0 -10
-4 -18 -10 -18 -19 0 -10 33 21 82 39 60 49 57 14 -3z m94 -30 c-11 -27 -23
-73 -28 -102 -6 -36 -9 -43 -10 -21 -1 43 39 174 53 174 2 0 -5 -23 -15 -51z
m-52 -101 c-3 -7 -5 -2 -5 12 0 14 2 19 5 13 2 -7 2 -19 0 -25z m1643 -1997
c14 -10 37 -35 52 -57 47 -67 61 -127 64 -264 l2 -125 -8 115 c-10 154 -38
229 -112 301 -22 21 -46 39 -54 39 -7 0 -16 5 -19 10 -10 16 45 1 75 -19z
m-139 -68 c16 -80 -2 -231 -48 -387 -43 -149 -49 -174 -35 -161 19 18 80 240
97 350 9 60 14 134 11 164 -4 39 -3 48 3 31 15 -42 12 -226 -5 -308 -9 -42
-29 -117 -44 -167 -27 -83 -31 -119 -10 -85 15 23 58 167 75 250 21 101 22
262 2 320 l-16 45 29 -33 c43 -52 55 -109 54 -262 -2 -115 -6 -148 -29 -225
-34 -115 -41 -150 -27 -141 26 16 74 208 87 346 6 60 -10 181 -29 235 -8 20
-7 20 8 1 31 -39 58 -130 63 -216 6 -99 -8 -202 -42 -316 l-25 -82 -112 -93
c-62 -52 -164 -143 -225 -203 -62 -60 -113 -104 -113 -99 0 13 78 203 159 387
34 77 62 153 64 170 3 48 -25 44 -84 -11 -35 -32 -50 -41 -46 -28 38 123 57
311 39 365 -9 26 -9 38 4 63 27 52 81 113 116 130 56 28 65 23 79 -40z m288
-77 c17 -34 36 -87 42 -117 14 -64 17 -185 6 -251 -7 -42 -14 -52 -53 -78 -24
-17 -44 -29 -44 -27 0 2 9 39 20 83 42 163 34 343 -21 448 -20 39 -20 40 -1
23 11 -10 34 -46 51 -81z m-83 -41 c20 -63 29 -207 16 -260 -7 -32 -9 -16 -9
80 -1 101 -5 133 -26 195 -14 43 -19 66 -11 55 8 -11 22 -42 30 -70z m153 -17
c36 -80 51 -150 51 -242 0 -69 -1 -73 -26 -85 -23 -10 -26 -10 -20 5 11 28 8
219 -4 265 -6 24 -18 61 -25 82 -24 60 -6 42 24 -25z m-112 -280 c-3 -7 -5 -2
-5 12 0 14 2 19 5 13 2 -7 2 -19 0 -25z m-42 -48 c-9 -41 -17 -33 -9 9 4 17 9
30 11 27 3 -2 2 -19 -2 -36z m32 -2 c-3 -7 -5 -2 -5 12 0 14 2 19 5 13 2 -7 2
-19 0 -25z m-54 -130 c-18 -20 -29 -17 -20 5 3 7 12 14 21 14 15 0 14 -2 -1
-19z m-1266 -4920 c-3 -8 -6 -5 -6 6 -1 11 2 17 5 13 3 -3 4 -12 1 -19z m250
-30 c-3 -8 -6 -5 -6 6 -1 11 2 17 5 13 3 -3 4 -12 1 -19z m-240 -30 c-3 -8 -6
-5 -6 6 -1 11 2 17 5 13 3 -3 4 -12 1 -19z m550 -80 c-2 -18 -4 -4 -4 32 0 36
2 50 4 33 2 -18 2 -48 0 -65z m-370 30 c-3 -7 -5 -2 -5 12 0 14 2 19 5 13 2
-7 2 -19 0 -25z m110 0 c-3 -8 -6 -5 -6 6 -1 11 2 17 5 13 3 -3 4 -12 1 -19z
m-140 -20 c-3 -7 -5 -2 -5 12 0 14 2 19 5 13 2 -7 2 -19 0 -25z m-270 0 c-3
-8 -6 -5 -6 6 -1 11 2 17 5 13 3 -3 4 -12 1 -19z m133 -36 c-7 -13 -9 -8 -9
23 0 35 1 37 10 17 6 -15 5 -30 -1 -40z m607 36 c-3 -8 -6 -5 -6 6 -1 11 2 17
5 13 3 -3 4 -12 1 -19z m-320 -20 c-3 -8 -6 -5 -6 6 -1 11 2 17 5 13 3 -3 4
-12 1 -19z m60 -10 c-3 -8 -6 -5 -6 6 -1 11 2 17 5 13 3 -3 4 -12 1 -19z
m-410 -35 c-3 -10 -5 -2 -5 17 0 19 2 27 5 18 2 -10 2 -26 0 -35z m692 -13 c0
-9 -4 -8 -9 5 -5 11 -9 27 -9 35 0 9 4 8 9 -5 5 -11 9 -27 9 -35z m-972 18
c-3 -8 -6 -5 -6 6 -1 11 2 17 5 13 3 -3 4 -12 1 -19z m-16 -45 c-12 -20 -14
-14 -5 12 4 9 9 14 11 11 3 -2 0 -13 -6 -23z m576 -365 c-3 -8 -6 -5 -6 6 -1
11 2 17 5 13 3 -3 4 -12 1 -19z"/>
<path d="M3112 12310 c0 -19 2 -27 5 -17 2 9 2 25 0 35 -3 9 -5 1 -5 -18z"/>
<path d="M2780 12319 c0 -2 -7 -26 -15 -53 -12 -40 -12 -46 -1 -37 15 12 31
79 22 89 -3 3 -6 3 -6 1z"/>
<path d="M3223 12260 c0 -25 2 -35 4 -22 2 12 2 32 0 45 -2 12 -4 2 -4 -23z"/>
<path d="M2973 12255 c0 -22 2 -30 4 -17 2 12 2 30 0 40 -3 9 -5 -1 -4 -23z"/>
<path d="M3083 12185 c0 -22 2 -30 4 -17 2 12 2 30 0 40 -3 9 -5 -1 -4 -23z"/>
<path d="M2757 12175 c-4 -16 -10 -39 -14 -50 -5 -18 -4 -19 12 -4 11 11 15
28 13 50 l-3 34 -8 -30z"/>
<path d="M2972 12170 c0 -19 2 -27 5 -17 2 9 2 25 0 35 -3 9 -5 1 -5 -18z"/>
<path d="M3421 12183 c-1 -27 20 -82 25 -67 3 5 -2 28 -10 50 -10 27 -15 32
-15 17z"/>
<path d="M3232 12130 c0 -14 2 -19 5 -12 2 6 2 18 0 25 -3 6 -5 1 -5 -13z"/>
<path d="M2597 12062 c-19 -52 -22 -75 -7 -52 17 27 12 -10 -10 -67 -11 -29
-16 -53 -11 -53 5 0 12 6 14 13 3 7 6 3 7 -8 1 -11 8 32 16 95 7 63 12 116 10
117 -1 1 -10 -19 -19 -45z"/>
<path d="M3082 12080 c0 -19 2 -27 5 -17 2 9 2 25 0 35 -3 9 -5 1 -5 -18z"/>
<path d="M3102 12090 c0 -14 2 -19 5 -12 2 6 2 18 0 25 -3 6 -5 1 -5 -13z"/>
<path d="M2743 12055 c-6 -27 -10 -52 -7 -54 7 -8 25 54 22 78 -2 20 -6 14
-15 -24z"/>
<path d="M3435 12060 c3 -25 6 -69 8 -97 1 -29 9 -58 16 -65 11 -11 12 -8 6
17 -4 17 -9 55 -10 85 -2 30 -8 66 -14 80 -10 22 -11 19 -6 -20z"/>
<path d="M3233 12045 c0 -22 2 -30 4 -17 2 12 2 30 0 40 -3 9 -5 -1 -4 -23z"/>
<path d="M2962 12030 c0 -19 2 -27 5 -17 2 9 2 25 0 35 -3 9 -5 1 -5 -18z"/>
<path d="M2738 11965 c-3 -11 -9 -33 -13 -50 -6 -28 -5 -29 10 -14 11 10 15
28 13 50 -3 27 -5 30 -10 14z"/>
<path d="M3232 11955 c0 -16 2 -22 5 -12 2 9 2 23 0 30 -3 6 -5 -1 -5 -18z"/>
<path d="M2963 11935 c0 -22 2 -30 4 -17 2 12 2 30 0 40 -3 9 -5 -1 -4 -23z"/>
<path d="M2566 11823 c-15 -43 -15 -77 0 -39 5 14 9 15 15 4 6 -8 9 5 9 35 0
26 -2 47 -4 47 -2 0 -11 -21 -20 -47z"/>
<path d="M2728 11848 c-1 -13 -2 -43 -3 -68 0 -25 -4 -61 -9 -80 -6 -27 -5
-32 4 -24 12 12 26 194 16 194 -4 0 -7 -10 -8 -22z"/>
<path d="M2962 11840 c0 -14 2 -19 5 -12 2 6 2 18 0 25 -3 6 -5 1 -5 -13z"/>
<path d="M3242 11810 c0 -19 2 -27 5 -17 2 9 2 25 0 35 -3 9 -5 1 -5 -18z"/>
<path d="M3613 11690 c5 -84 26 -163 34 -128 2 9 -3 33 -11 53 -9 21 -15 47
-15 59 1 17 2 17 6 4 2 -10 8 -18 13 -18 9 0 -16 100 -27 110 -3 3 -3 -33 0
-80z"/>
<path d="M2563 11731 c-16 -42 -18 -84 -3 -61 16 24 13 -9 -6 -63 -9 -26 -14
-52 -11 -59 9 -27 38 102 35 159 l-3 58 -12 -34z"/>
<path d="M3243 11705 c0 -27 2 -38 4 -22 2 15 2 37 0 50 -2 12 -4 0 -4 -28z"/>
<path d="M2720 11634 c0 -5 -4 -26 -9 -46 -5 -21 -5 -38 -1 -38 10 0 24 79 16
87 -3 4 -6 2 -6 -3z"/>
<path d="M3242 11615 c0 -16 2 -22 5 -12 2 9 2 23 0 30 -3 6 -5 -1 -5 -18z"/>
<path d="M2952 11610 c0 -14 2 -19 5 -12 2 6 2 18 0 25 -3 6 -5 1 -5 -13z"/>
<path d="M1764 10026 c-38 -17 -103 -74 -147 -130 l-32 -41 59 43 c67 48 137
72 208 72 52 0 151 -29 208 -62 30 -17 27 -12 -20 31 -98 92 -195 122 -276 87z"/>
<path d="M1527 9788 c-59 -73 -117 -168 -179 -296 -33 -68 -58 -125 -56 -127
2 -2 39 60 82 138 43 78 105 184 137 235 32 50 56 92 54 92 -2 0 -19 -19 -38
-42z"/>
<path d="M4580 9357 c-63 -26 -144 -76 -137 -83 2 -3 26 0 51 7 26 6 82 10
126 7 184 -11 328 -138 435 -384 45 -102 44 -81 0 43 -75 207 -163 348 -250
399 -66 38 -152 43 -225 11z"/>
<path d="M1360 8507 c-56 -17 -159 -128 -209 -225 -42 -81 -126 -301 -118
-309 3 -2 14 23 27 56 59 158 179 305 298 363 62 31 74 33 167 33 55 0 116 -4
135 -8 33 -8 32 -6 -20 28 -105 68 -195 88 -280 62z"/>
<path d="M4980 7382 c-30 -10 -71 -27 -90 -36 -49 -25 -201 -128 -197 -133 2
-2 33 3 68 12 73 17 212 20 288 5 275 -52 517 -325 671 -757 22 -60 39 -103
39 -97 1 19 -85 313 -125 424 -107 303 -241 503 -381 570 -66 32 -196 37 -273
12z"/>
<path d="M1454 5390 c-29 -4 -77 -19 -108 -33 -317 -145 -515 -621 -696 -1672
-12 -66 -24 -129 -27 -140 -15 -54 20 12 65 125 52 130 112 313 182 560 194
680 290 892 474 1048 52 45 158 102 188 102 9 0 20 5 23 10 7 11 -24 11 -101
0z"/>
<path d="M2751 1664 c0 -11 3 -14 6 -6 3 7 2 16 -1 19 -3 4 -6 -2 -5 -13z"/>
<path d="M3221 1654 c0 -11 3 -14 6 -6 3 7 2 16 -1 19 -3 4 -6 -2 -5 -13z"/>
</g>
</svg>
