<?xml version="1.0" encoding="utf-8"?>
<!-- Generator: Adobe Illustrator 23.0.3, SVG Export Plug-In . SVG Version: 6.00 Build 0)  -->
<svg version="1.1" id="Layer_1" xmlns="http://www.w3.org/2000/svg" xmlns:xlink="http://www.w3.org/1999/xlink" x="0px" y="0px"
	 viewBox="0 0 182.2 206.7" style="enable-background:new 0 0 182.2 206.7;" xml:space="preserve">
<style type="text/css">
	.st0{fill:#01bb85;}
	.st1{fill:#01bb85;}
	.st2{fill:#01bb85;}
</style>
<g>
	<g>
		<g>
			<circle className="st0" cx="161.8" cy="191.4" r="8.4"/>
		</g>
		<g>
			<path className="st1" d="M178.2,192.4h-2.6c-0.7,0-1.3-0.6-1.3-1.3s0.6-1.3,1.3-1.3h2.6c0.7,0,1.3,0.6,1.3,1.3S179,192.4,178.2,192.4
				z M168.6,192.4h-5.3c-0.7,0-1.3-0.6-1.3-1.3s0.6-1.3,1.3-1.3h5.3c0.7,0,1.3,0.6,1.3,1.3S169.4,192.4,168.6,192.4z M156.3,192.4
				h-5.3c-0.7,0-1.3-0.6-1.3-1.3s0.6-1.3,1.3-1.3h5.3c0.7,0,1.3,0.6,1.3,1.3S157,192.4,156.3,192.4z M144,192.4h-5.3
				c-0.7,0-1.3-0.6-1.3-1.3s0.6-1.3,1.3-1.3h5.3c0.7,0,1.3,0.6,1.3,1.3S144.8,192.4,144,192.4z M131.8,192.4h-5.3
				c-0.7,0-1.3-0.6-1.3-1.3s0.6-1.3,1.3-1.3h5.3c0.7,0,1.3,0.6,1.3,1.3S132.5,192.4,131.8,192.4z M119.5,192.4h-5.3
				c-0.7,0-1.3-0.6-1.3-1.3s0.6-1.3,1.3-1.3h5.3c0.7,0,1.3,0.6,1.3,1.3S120.2,192.4,119.5,192.4z M107.2,192.4h-5.3
				c-0.7,0-1.3-0.6-1.3-1.3s0.6-1.3,1.3-1.3h5.3c0.7,0,1.3,0.6,1.3,1.3S107.9,192.4,107.2,192.4z M94.9,192.4h-5.3
				c-0.7,0-1.3-0.6-1.3-1.3s0.6-1.3,1.3-1.3h5.3c0.7,0,1.3,0.6,1.3,1.3S95.6,192.4,94.9,192.4z M82.6,192.4h-5.3
				c-0.7,0-1.3-0.6-1.3-1.3s0.6-1.3,1.3-1.3h5.3c0.7,0,1.3,0.6,1.3,1.3S83.3,192.4,82.6,192.4z M70.3,192.4h-5.3
				c-0.7,0-1.3-0.6-1.3-1.3s0.6-1.3,1.3-1.3h5.3c0.7,0,1.3,0.6,1.3,1.3S71.1,192.4,70.3,192.4z M58,192.4h-5.3
				c-0.7,0-1.3-0.6-1.3-1.3s0.6-1.3,1.3-1.3H58c0.7,0,1.3,0.6,1.3,1.3S58.8,192.4,58,192.4z"/>
		</g>
	</g>
	<g>
		<g>
			<circle className="st0" cx="149.8" cy="74.7" r="5.2"/>
		</g>
		<g>
			<path className="st1" d="M180.9,76h-5.3c-0.7,0-1.3-0.6-1.3-1.3s0.6-1.3,1.3-1.3h5.3c0.7,0,1.3,0.6,1.3,1.3S181.7,76,180.9,76z
				 M168.6,76h-5.3c-0.7,0-1.3-0.6-1.3-1.3s0.6-1.3,1.3-1.3h5.3c0.7,0,1.3,0.6,1.3,1.3S169.4,76,168.6,76z M156.3,76h-5.3
				c-0.7,0-1.3-0.6-1.3-1.3s0.6-1.3,1.3-1.3h5.3c0.7,0,1.3,0.6,1.3,1.3S157.1,76,156.3,76z M144,76h-5.3c-0.7,0-1.3-0.6-1.3-1.3
				s0.6-1.3,1.3-1.3h5.3c0.7,0,1.3,0.6,1.3,1.3S144.8,76,144,76z M131.8,76h-5.3c-0.7,0-1.3-0.6-1.3-1.3s0.6-1.3,1.3-1.3h5.3
				c0.7,0,1.3,0.6,1.3,1.3S132.5,76,131.8,76z M119.5,76h-5.3c-0.7,0-1.3-0.6-1.3-1.3s0.6-1.3,1.3-1.3h5.3c0.7,0,1.3,0.6,1.3,1.3
				S120.2,76,119.5,76z M107.2,76h-5.3c-0.7,0-1.3-0.6-1.3-1.3s0.6-1.3,1.3-1.3h5.3c0.7,0,1.3,0.6,1.3,1.3S107.9,76,107.2,76z
				 M94.9,76h-5.3c-0.7,0-1.3-0.6-1.3-1.3s0.6-1.3,1.3-1.3h5.3c0.7,0,1.3,0.6,1.3,1.3S95.6,76,94.9,76z M82.6,76h-5.3
				c-0.7,0-1.3-0.6-1.3-1.3s0.6-1.3,1.3-1.3h5.3c0.7,0,1.3,0.6,1.3,1.3S83.3,76,82.6,76z M70.3,76h-5.3c-0.7,0-1.3-0.6-1.3-1.3
				s0.6-1.3,1.3-1.3h5.3c0.7,0,1.3,0.6,1.3,1.3S71.1,76,70.3,76z M58,76h-5.3c-0.7,0-1.3-0.6-1.3-1.3s0.6-1.3,1.3-1.3H58
				c0.7,0,1.3,0.6,1.3,1.3S58.8,76,58,76z"/>
		</g>
	</g>
	<g>
		<g>
			<path className="st1" d="M178,151.3h-2.3c-0.7,0-1.3-0.6-1.3-1.3s0.6-1.3,1.3-1.3h2.3c0.7,0,1.3,0.6,1.3,1.3S178.7,151.3,178,151.3z
				 M168.6,151.3h-5.3c-0.7,0-1.3-0.6-1.3-1.3s0.6-1.3,1.3-1.3h5.3c0.7,0,1.3,0.6,1.3,1.3S169.4,151.3,168.6,151.3z M156.3,151.3
				h-5.3c-0.7,0-1.3-0.6-1.3-1.3s0.6-1.3,1.3-1.3h5.3c0.7,0,1.3,0.6,1.3,1.3S157,151.3,156.3,151.3z M144,151.3h-5.3
				c-0.7,0-1.3-0.6-1.3-1.3s0.6-1.3,1.3-1.3h5.3c0.7,0,1.3,0.6,1.3,1.3S144.8,151.3,144,151.3z M119.5,151.3h-5.3
				c-0.7,0-1.3-0.6-1.3-1.3s0.6-1.3,1.3-1.3h5.3c0.7,0,1.3,0.6,1.3,1.3S120.2,151.3,119.5,151.3z M107.2,151.3h-5.3
				c-0.7,0-1.3-0.6-1.3-1.3s0.6-1.3,1.3-1.3h5.3c0.7,0,1.3,0.6,1.3,1.3S107.9,151.3,107.2,151.3z M94.9,151.3h-5.3
				c-0.7,0-1.3-0.6-1.3-1.3s0.6-1.3,1.3-1.3h5.3c0.7,0,1.3,0.6,1.3,1.3S95.6,151.3,94.9,151.3z M82.6,151.3h-5.3
				c-0.7,0-1.3-0.6-1.3-1.3s0.6-1.3,1.3-1.3h5.3c0.7,0,1.3,0.6,1.3,1.3S83.3,151.3,82.6,151.3z M70.3,151.3h-5.3
				c-0.7,0-1.3-0.6-1.3-1.3s0.6-1.3,1.3-1.3h5.3c0.7,0,1.3,0.6,1.3,1.3S71.1,151.3,70.3,151.3z M58,151.3h-5.3
				c-0.7,0-1.3-0.6-1.3-1.3s0.6-1.3,1.3-1.3H58c0.7,0,1.3,0.6,1.3,1.3S58.8,151.3,58,151.3z"/>
		</g>
		<g>
			<circle className="st2" cx="130.8" cy="150" r="6.6"/>
			<path className="st0" d="M130.8,157.9c-4.3,0-7.9-3.5-7.9-7.9s3.5-7.9,7.9-7.9c4.3,0,7.9,3.5,7.9,7.9S135.1,157.9,130.8,157.9z
				 M130.8,144.8c-2.9,0-5.2,2.4-5.2,5.2s2.4,5.2,5.2,5.2c2.9,0,5.2-2.4,5.2-5.2S133.6,144.8,130.8,144.8z"/>
		</g>
	</g>
	<g>
		<path className="st0" d="M51.7,206.7c-12.1,0-51.7-3.9-51.7-54.4c0-21.7,5.6-36.9,10.3-45.9c5.6-10.8,9.5-21.6,11.7-32
			c1.4-6.8,3.6-12.8,6.7-17.9l0,0c5.7-9.6,16.3-14.5,27.5-12.9C67.4,45,76,52.6,78.8,63.3c0.1,0.4,0.2,0.8,0.3,1.2
			c4.2,17.3,10.1,34.5,17.6,50.9c5.4,11.9,8.1,24.7,8.1,38c0,17.5-6.2,31.8-18,41.3C77.5,202.3,64.7,206.7,51.7,206.7z M30.9,57.7
			c-2.9,4.9-5,10.6-6.4,17.1c-2.2,10.7-6.2,21.7-11.9,32.7c-4.6,8.8-10,23.6-10,44.7c0,48,37.6,51.8,49.1,51.8
			c18.8,0,50.5-10.7,50.5-50.7c0-12.9-2.7-25.3-7.9-36.9c-7.5-16.6-13.4-33.9-17.7-51.3c-0.1-0.4-0.2-0.8-0.3-1.2
			C73.8,54.3,65.9,47.5,55.8,46C45.6,44.6,36,49.1,30.9,57.7L30.9,57.7z"/>
	</g>
	<g>
		<g>
			<path className="st1" d="M51.9,45.1C51.9,45.1,51.9,45.1,51.9,45.1c-0.7,0-1.3-0.6-1.3-1.3c0-0.4,6.1-40.4,28.2-43.8
				c0.7-0.1,1.4,0.4,1.5,1.1c0.1,0.7-0.4,1.4-1.1,1.5c-20,3.1-25.9,40.9-26,41.2C53.2,44.6,52.6,45.1,51.9,45.1z"/>
		</g>
		<g>
			<path className="st1" d="M72,38.7c-0.3,0-0.6-0.1-0.9-0.4C71,38.2,56.8,24.4,64.5,9c0.3-0.7,1.1-0.9,1.8-0.6c0.7,0.3,0.9,1.1,0.6,1.8
				c-6.8,13.8,6,26.2,6.1,26.4c0.5,0.5,0.5,1.3,0,1.9C72.7,38.6,72.3,38.7,72,38.7z"/>
		</g>
	</g>
	<g>
		<circle className="st1" cx="52.6" cy="150.5" r="23.9"/>
	</g>
	<g>
		<path className="st1" d="M54.5,10.8c0,0-23.5,4-26.3,23.5C28.2,34.3,51.7,30.3,54.5,10.8z"/>
	</g>
</g>
</svg>
