<?xml version="1.0" encoding="utf-8"?>
<!-- Generator: Adobe Illustrator 23.0.3, SVG Export Plug-In . SVG Version: 6.00 Build 0)  -->
<svg version="1.1" id="Layer_1" xmlns="http://www.w3.org/2000/svg" xmlns:xlink="http://www.w3.org/1999/xlink" x="0px" y="0px"
	 viewBox="0 0 213.1 200.4" style="enable-background:new 0 0 213.1 200.4;" xml:space="preserve">
<style type="text/css">
	.st0{fill:#23B583;}
</style>
<g>
	<path className="st0" d="M173.5,101.5h-67.6V38.7c0-0.7-0.6-1.3-1.3-1.3H35.7v1.3l-0.9-1L0.4,69.8l0,0C0.2,70.1,0,70.4,0,70.8v64.1v0
		v64.1c0,0.7,0.6,1.3,1.3,1.3h68.9H139c0.5,0,0.9-0.3,1.1-0.7l0.2,0.2l34.4-32.9v-64.1C174.8,102.1,174.2,101.5,173.5,101.5z
		 M103.3,102.3l-31.8,29.6V71.3l31.8-29.6V102.3z M68.9,133.6H2.6V72.1h66.2C68.8,72.1,68.8,133.6,68.9,133.6z M105.1,104.2h65
		l-31.6,29.4h-65L105.1,104.2z M140.3,135.5l31.8-29.6v60l-31.8,30.4V135.5z M36.2,40.1h65L69.6,69.5h-65L36.2,40.1z M2.6,136.3
		h66.2v61.5H2.6V136.3z M137.7,197.7H71.5v-61.5h66.2V197.7z"/>
	<path className="st0" d="M123.8,72.6c0.7,0,1.3-0.6,1.3-1.3V60.5c0-0.7-0.6-1.3-1.3-1.3s-1.3,0.6-1.3,1.3v10.8
		C122.5,72,123.1,72.6,123.8,72.6z"/>
	<path className="st0" d="M123.8,40.1c0.7,0,1.3-0.6,1.3-1.3V27.9c0-0.7-0.6-1.3-1.3-1.3s-1.3,0.6-1.3,1.3v10.8
		C122.5,39.5,123.1,40.1,123.8,40.1z"/>
	<path className="st0" d="M123.8,56.4c0.7,0,1.3-0.6,1.3-1.3V44.2c0-0.7-0.6-1.3-1.3-1.3s-1.3,0.6-1.3,1.3v10.8
		C122.5,55.8,123.1,56.4,123.8,56.4z"/>
	<path className="st0" d="M123.8,84.7h4.2c0.7,0,1.3-0.6,1.3-1.3s-0.6-1.3-1.3-1.3h-2.9v-5.4c0-0.7-0.6-1.3-1.3-1.3s-1.3,0.6-1.3,1.3
		v6.7C122.5,84.1,123.1,84.7,123.8,84.7z"/>
	<path className="st0" d="M133.4,84.7h10.9c0.7,0,1.3-0.6,1.3-1.3s-0.6-1.3-1.3-1.3h-10.9c-0.7,0-1.3,0.6-1.3,1.3S132.7,84.7,133.4,84.7
		z"/>
	<path className="st0" d="M123.8,23.8c0.7,0,1.3-0.6,1.3-1.3v-2.7h5.6c0.7,0,1.3-0.6,1.3-1.3c0-0.7-0.6-1.3-1.3-1.3h-3.8l5.4-5.6
		c0.5-0.5,0.5-1.3,0-1.9c-0.5-0.5-1.4-0.5-1.9,0l-7.5,7.8c0,0-0.1,0.1-0.1,0.2c-0.1,0.1-0.1,0.2-0.2,0.3c0,0.1-0.1,0.2-0.1,0.3
		c0,0.1,0,0.1,0,0.2v4C122.5,23.2,123.1,23.8,123.8,23.8z"/>
	<path className="st0" d="M134.8,18.5c0,0.7,0.6,1.3,1.3,1.3h10.9c0.7,0,1.3-0.6,1.3-1.3c0-0.7-0.6-1.3-1.3-1.3h-10.9
		C135.3,17.2,134.8,17.8,134.8,18.5z"/>
	<path className="st0" d="M164.5,18.5c0-0.7-0.6-1.3-1.3-1.3h-2.3l5.9-6.1c0.5-0.5,0.5-1.3,0-1.9c-0.5-0.5-1.4-0.5-1.9,0l-7.5,7.8
		c0,0-0.1,0.1-0.1,0.1h-5c-0.7,0-1.3,0.6-1.3,1.3s0.6,1.3,1.3,1.3h10.9C163.9,19.8,164.5,19.2,164.5,18.5z"/>
	<path className="st0" d="M194.4,19.1l4.6-4.2c0.5-0.5,0.6-1.3,0.1-1.8s-1.3-0.6-1.9-0.1l-4.6,4.3h-7.6c-0.7,0-1.3,0.6-1.3,1.3
		c0,0.7,0.6,1.3,1.3,1.3h6.9v1.4c0,0.7,0.6,1.3,1.3,1.3s1.3-0.6,1.3-1.3V19.1z"/>
	<path className="st0" d="M149.7,84.7h10.9c0.7,0,1.3-0.6,1.3-1.3s-0.6-1.3-1.3-1.3h-1v-9.9c0-0.7-0.6-1.3-1.3-1.3s-1.3,0.6-1.3,1.3v9.9
		h-7.2c-0.7,0-1.3,0.6-1.3,1.3S148.9,84.7,149.7,84.7z"/>
	<path className="st0" d="M193.1,57.9c-0.7,0-1.3,0.6-1.3,1.3V70c0,0.7,0.6,1.3,1.3,1.3s1.3-0.6,1.3-1.3V59.2
		C194.4,58.5,193.8,57.9,193.1,57.9z"/>
	<path className="st0" d="M193.1,25.3c-0.7,0-1.3,0.6-1.3,1.3v10.9c0,0.7,0.6,1.3,1.3,1.3s1.3-0.6,1.3-1.3V26.6
		C194.4,25.9,193.8,25.3,193.1,25.3z"/>
	<path className="st0" d="M167.3,18.5c0,0.7,0.6,1.3,1.3,1.3h10.9c0.7,0,1.3-0.6,1.3-1.3c0-0.7-0.6-1.3-1.3-1.3h-10.9
		C167.9,17.2,167.3,17.8,167.3,18.5z"/>
	<path className="st0" d="M176.8,82.1h-10.9c-0.7,0-1.3,0.6-1.3,1.3c0,0.7,0.6,1.3,1.3,1.3h10.9c0.7,0,1.3-0.6,1.3-1.3
		S177.5,82.1,176.8,82.1z"/>
	<path className="st0" d="M165.3,2.6h6l-2.6,2.7c-0.5,0.5-0.5,1.3,0,1.9c0.2,0.2,0.6,0.4,0.9,0.4c0.4,0,0.7-0.1,0.9-0.4l4.4-4.5h1.2
		c0.7,0,1.3-0.6,1.3-1.3S176.8,0,176.1,0h-10.8c-0.7,0-1.3,0.6-1.3,1.3S164.6,2.6,165.3,2.6z"/>
	<path className="st0" d="M181.6,2.6h10.9c0.7,0,1.3-0.6,1.3-1.3S193.1,0,192.4,0h-10.9c-0.7,0-1.3,0.6-1.3,1.3S180.8,2.6,181.6,2.6z"/>
	<path className="st0" d="M149,2.6h10.9c0.7,0,1.3-0.6,1.3-1.3S160.6,0,159.9,0H149c-0.7,0-1.3,0.6-1.3,1.3S148.3,2.6,149,2.6z"/>
	<path className="st0" d="M135.1,8.1c0.3,0,0.7-0.1,0.9-0.4l4.9-5.1h2.6c0.7,0,1.3-0.6,1.3-1.3S144.3,0,143.6,0h-3.2
		c-0.4,0-0.7,0.2-0.9,0.4l-5.3,5.5c-0.5,0.5-0.5,1.3,0,1.9C134.4,8,134.8,8.1,135.1,8.1z"/>
	<path className="st0" d="M211.8,16.3c-0.7,0-1.3,0.6-1.3,1.3v10.9c0,0.7,0.6,1.3,1.3,1.3s1.3-0.6,1.3-1.3V17.6
		C213.1,16.9,212.5,16.3,211.8,16.3z"/>
	<path className="st0" d="M211.8,32.5c-0.6,0-1,0.4-1.2,0.9l-4.1,3.8c-0.5,0.5-0.6,1.3-0.1,1.8c0.3,0.3,0.6,0.4,1,0.4
		c0.3,0,0.6-0.1,0.9-0.3l2.2-2v7.7c0,0.7,0.6,1.3,1.3,1.3s1.3-0.6,1.3-1.3V33.9C213.1,33.1,212.5,32.5,211.8,32.5z"/>
	<path className="st0" d="M211.8,65.1c-0.6,0-1.1,0.4-1.3,1l-7.5,6.7c-0.5,0.5-0.6,1.3-0.1,1.8c0.3,0.3,0.6,0.4,1,0.4
		c0.3,0,0.6-0.1,0.9-0.3l7.9-7c0.3-0.2,0.4-0.6,0.4-1v-0.3C213.1,65.7,212.5,65.1,211.8,65.1z"/>
	<path className="st0" d="M199,76.4l-4.6,4.1v-5c0-0.7-0.6-1.3-1.3-1.3s-1.3,0.6-1.3,1.3v6.7h-9.5c-0.7,0-1.3,0.6-1.3,1.3
		c0,0.7,0.6,1.3,1.3,1.3h10.9c0.2,0,0.3,0,0.5-0.1c0.1,0,0.1-0.1,0.2-0.1c0.1,0,0.1-0.1,0.2-0.1l6.8-6.1c0.5-0.5,0.6-1.3,0.1-1.8
		C200.3,75.9,199.5,75.9,199,76.4z"/>
	<path className="st0" d="M211.8,48.8c-0.7,0-1.3,0.6-1.3,1.3V61c0,0.7,0.6,1.3,1.3,1.3s1.3-0.6,1.3-1.3V50.1
		C213.1,49.4,212.5,48.8,211.8,48.8z"/>
	<path className="st0" d="M211.9,0L211.9,0L211.9,0c-0.1,0-0.1,0-0.1,0s0,0,0,0h-3c0,0,0,0,0,0h-10.9c-0.7,0-1.3,0.6-1.3,1.3
		s0.6,1.3,1.3,1.3h10.6l-7.2,6.7c-0.5,0.5-0.6,1.3-0.1,1.8c0.3,0.3,0.6,0.4,1,0.4c0.3,0,0.6-0.1,0.9-0.3l7.5-6.9v7.9
		c0,0.7,0.6,1.3,1.3,1.3s1.3-0.6,1.3-1.3V1.3C213.1,0.6,212.5,0.1,211.9,0z"/>
	<path className="st0" d="M158.2,54.6c-0.7,0-1.3,0.6-1.3,1.3v10.8c0,0.7,0.6,1.3,1.3,1.3s1.3-0.6,1.3-1.3V55.9
		C159.5,55.2,158.9,54.6,158.2,54.6z"/>
	<path className="st0" d="M158.2,35.5c0.7,0,1.3-0.6,1.3-1.3V23.4c0-0.7-0.6-1.3-1.3-1.3s-1.3,0.6-1.3,1.3v10.8
		C156.9,35,157.5,35.5,158.2,35.5z"/>
	<path className="st0" d="M156.9,49.9h-9.6c-0.7,0-1.3,0.6-1.3,1.3s0.6,1.3,1.3,1.3h10.9c0.7,0,1.3-0.6,1.3-1.3c0-0.1,0-0.2-0.1-0.3
		c0-0.1,0.1-0.3,0.1-0.4V39.7c0-0.7-0.6-1.3-1.3-1.3s-1.3,0.6-1.3,1.3L156.9,49.9L156.9,49.9z"/>
	<path className="st0" d="M163.6,52.5h10.9c0.7,0,1.3-0.6,1.3-1.3s-0.6-1.3-1.3-1.3h-10.9c-0.7,0-1.3,0.6-1.3,1.3S162.9,52.5,163.6,52.5
		z"/>
	<path className="st0" d="M143.2,51.2c0-0.7-0.6-1.3-1.3-1.3h-10.9c-0.7,0-1.3,0.6-1.3,1.3s0.6,1.3,1.3,1.3h10.9
		C142.6,52.5,143.2,51.9,143.2,51.2z"/>
	<path className="st0" d="M191.7,52v1.7c0,0.7,0.6,1.3,1.3,1.3s1.3-0.6,1.3-1.3V50c0,0,0,0,0,0.1c0.3,0.3,0.6,0.4,1,0.4
		c0.3,0,0.6-0.1,0.9-0.3l8-7.3c0.5-0.5,0.6-1.3,0.1-1.8c-0.5-0.5-1.3-0.6-1.9-0.1l-8,7.3c-0.1,0-0.1,0.1-0.1,0.2v-5.4
		c0-0.7-0.6-1.3-1.3-1.3s-1.3,0.6-1.3,1.3v7.5c-0.2-0.3-0.6-0.5-1-0.5h-10.9c-0.7,0-1.3,0.6-1.3,1.3s0.6,1.3,1.3,1.3h10.9
		C191.1,52.5,191.5,52.3,191.7,52z"/>
</g>
</svg>
