<?xml version="1.0" standalone="no"?>
<!DOCTYPE svg PUBLIC "-//W3C//DTD SVG 20010904//EN"
 "http://www.w3.org/TR/2001/REC-SVG-20010904/DTD/svg10.dtd">
<svg version="1.0" xmlns="http://www.w3.org/2000/svg"
 width="320.000000pt" height="640.000000pt" viewBox="0 0 640.000000 1280.000000"
 preserveAspectRatio="xMidYMid meet">
<metadata>
Created by potrace 1.15, written by Peter Selinger 2001-2017
</metadata>
<g transform="translate(0.000000,1280.000000) scale(0.100000,-0.100000)"
fill="#01bb85" stroke="none">
<path d="M2266 12643 c3 -81 9 -224 12 -318 7 -175 2 -348 -10 -330 -3 6 -9
36 -13 68 -4 31 -12 57 -17 57 -6 0 -8 -12 -5 -27 3 -16 10 -89 16 -163 7 -74
18 -182 27 -240 8 -58 17 -134 19 -170 10 -172 26 -850 23 -964 l-3 -128 -49
158 c-59 190 -65 208 -71 202 -3 -3 29 -146 70 -319 42 -173 91 -393 111 -489
43 -217 56 -257 100 -309 53 -61 124 -95 204 -95 36 -1 77 2 93 7 22 6 27 4
27 -11 0 -31 49 -117 79 -140 45 -33 112 -48 155 -35 20 6 36 9 36 7 0 -13
-42 -83 -68 -117 l-31 -38 -15 29 c-30 59 -71 78 -241 117 -93 21 -162 63
-271 168 l-91 87 -103 225 c-57 124 -107 225 -111 225 -4 0 45 -136 108 -302
63 -167 142 -384 175 -483 33 -99 69 -196 79 -216 30 -60 101 -115 173 -134
61 -17 64 -19 70 -54 24 -151 230 -202 368 -90 l38 30 -40 -63 c-21 -35 -66
-90 -100 -123 -60 -59 -60 -59 -75 -37 -23 31 -90 68 -165 88 -130 35 -210 89
-319 218 l-74 87 -84 226 c-81 221 -89 241 -96 232 -2 -2 36 -137 84 -299 49
-162 111 -387 139 -499 28 -112 59 -220 70 -240 32 -62 129 -141 173 -141 8 0
26 -24 41 -52 31 -64 74 -96 148 -108 141 -23 288 74 321 210 4 15 15 116 26
225 18 176 94 760 105 807 2 10 1 20 -4 23 -4 2 -20 -59 -35 -138 -15 -78 -31
-148 -35 -155 -3 -7 -12 75 -19 183 -12 177 -12 197 2 213 9 10 26 39 38 66
33 76 27 150 -30 374 l-49 193 31 61 c43 83 42 142 -7 391 l-39 197 27 54 c42
83 42 141 3 346 l-34 175 41 36 c23 20 55 61 71 90 27 48 30 63 30 139 l0 85
-102 215 c-56 118 -152 332 -213 475 -98 228 -130 296 -130 273 0 -4 36 -108
80 -233 l80 -227 0 -131 c0 -160 -23 -257 -81 -347 -84 -130 -99 -184 -74
-260 19 -57 89 -127 135 -137 25 -5 29 -9 24 -27 -15 -51 -63 -126 -117 -181
l-58 -60 -23 51 c-28 60 -66 94 -160 141 -39 19 -90 51 -113 69 -40 33 -133
147 -133 164 0 5 15 1 33 -8 47 -24 136 -27 194 -8 119 40 177 179 122 292
-21 45 -49 69 -145 127 -69 41 -148 120 -187 187 -14 25 -41 86 -60 135 -35
89 -35 92 -42 304 -8 227 -22 329 -25 186 -2 -86 -17 -72 -19 17 -1 26 -5 50
-11 53 -6 4 -8 -45 -4 -142z m231 -1775 c61 -27 138 -33 194 -15 l47 14 11
-36 c14 -48 67 -110 107 -127 39 -16 105 -18 153 -4 32 9 33 9 26 -18 -14 -57
-80 -157 -144 -218 -36 -35 -69 -64 -73 -64 -5 0 -8 12 -8 27 0 62 -72 138
-186 196 -52 27 -146 139 -197 235 -26 49 -47 92 -47 96 0 4 16 -10 37 -30 20
-20 56 -45 80 -56z m-147 -522 c0 -24 82 -107 129 -131 87 -44 186 -41 252 6
l27 19 6 -38 c7 -47 55 -116 95 -136 42 -22 100 -29 151 -17 24 5 46 8 48 7
15 -15 -108 -241 -131 -241 -5 0 -15 18 -23 40 -21 63 -77 108 -175 140 -133
44 -214 108 -332 262 -46 60 -78 121 -57 108 6 -3 10 -12 10 -19z"/>
<path d="M3709 11419 c-1 -2 -7 -42 -14 -89 l-12 -85 -3 85 c-3 141 -16 52
-35 -240 -15 -240 -38 -456 -50 -469 -3 -2 -6 16 -6 40 -1 24 -5 58 -9 74 -7
29 -12 -109 -15 -490 -1 -188 -35 -673 -65 -945 -11 -96 -20 -195 -21 -220 0
-30 -14 24 -41 158 -22 111 -44 202 -49 202 -5 0 -6 -12 -3 -27 13 -76 84
-644 94 -758 19 -227 30 -287 58 -339 50 -92 170 -155 273 -143 l48 6 6 -37
c9 -51 18 -72 50 -110 39 -46 81 -65 147 -66 l57 -1 -26 -35 c-33 -45 -85
-100 -94 -100 -4 0 -10 11 -13 24 -11 45 -79 93 -173 122 -123 38 -207 96
-299 205 -90 109 -87 103 -140 262 l-43 129 14 70 c25 116 13 129 -16 18 l-12
-45 -24 73 c-14 40 -27 71 -30 68 -3 -3 5 -47 17 -98 l23 -93 -41 -147 c-36
-130 -47 -157 -94 -225 -29 -42 -72 -97 -94 -122 l-42 -46 -25 27 c-40 43 -82
58 -190 68 -152 13 -214 40 -360 154 -76 59 -82 67 -204 271 -143 238 -131
220 -138 213 -3 -3 64 -141 150 -306 85 -166 173 -341 194 -390 76 -173 129
-268 167 -302 30 -26 39 -41 42 -73 10 -116 90 -181 222 -181 62 -1 84 4 126
26 59 31 109 84 134 142 10 23 35 138 55 256 46 273 111 580 118 560 15 -39
101 -380 132 -524 47 -217 59 -255 100 -308 34 -45 119 -98 157 -98 12 0 18
-8 18 -24 0 -70 53 -149 118 -178 62 -28 161 -21 226 15 25 14 46 22 46 19 0
-15 -124 -144 -167 -173 l-45 -31 -16 23 c-31 45 -64 68 -140 99 -146 60 -209
113 -310 263 -49 72 -64 104 -81 175 l-22 87 29 123 c16 67 26 122 22 122 -4
0 -21 -42 -37 -92 l-29 -93 -28 115 c-16 63 -33 120 -39 125 -6 7 -8 0 -4 -20
3 -16 16 -89 28 -161 l23 -131 -28 -94 c-31 -104 -80 -185 -172 -287 l-56 -62
-35 31 c-47 41 -72 49 -180 60 -153 14 -253 62 -394 188 -75 67 -150 200 -229
405 l-61 158 17 37 c11 20 20 67 22 109 4 68 0 87 -64 283 -63 196 -67 213
-55 243 7 17 18 54 24 83 12 61 -1 122 -68 325 l-43 131 34 35 c59 60 79 115
79 212 0 98 2 92 -128 295 -49 77 -167 272 -261 433 -94 161 -172 289 -174
284 -2 -6 45 -106 103 -222 l106 -212 15 -117 c22 -170 7 -271 -57 -404 -44
-91 -54 -141 -40 -193 20 -73 110 -154 172 -154 19 0 21 -4 16 -35 -8 -50 -60
-154 -102 -202 -40 -47 -55 -53 -55 -23 0 11 -19 40 -43 63 -32 32 -63 49
-127 72 -46 17 -109 46 -140 66 -51 33 -156 137 -147 146 2 2 16 -1 31 -7 65
-24 172 -5 239 44 58 42 85 127 67 210 -16 77 -62 122 -170 167 -72 29 -95 45
-165 114 -57 57 -94 105 -128 167 -48 87 -49 89 -89 333 -23 135 -45 245 -50
245 -5 0 -7 -12 -4 -27 2 -16 7 -55 10 -88 l5 -60 -15 65 c-19 80 -25 98 -30
84 -3 -5 16 -138 41 -295 42 -255 70 -488 61 -497 -2 -1 -12 27 -21 63 -17 62
-44 106 -33 54 14 -70 71 -322 84 -374 8 -33 24 -98 35 -145 23 -104 122 -742
144 -935 9 -77 20 -155 25 -174 5 -19 8 -36 6 -38 -1 -2 -40 81 -86 183 -46
103 -86 182 -87 177 -2 -6 44 -138 103 -294 58 -156 135 -370 169 -475 35
-105 72 -209 83 -231 60 -116 209 -179 331 -138 29 9 54 15 55 14 2 -2 13 -26
26 -52 41 -87 131 -131 220 -107 23 6 44 9 46 7 6 -6 -24 -74 -53 -120 l-25
-40 -17 27 c-25 41 -103 74 -196 81 -154 12 -227 43 -376 162 -70 56 -84 75
-179 229 -57 93 -115 186 -128 207 -13 22 -26 37 -29 34 -3 -3 64 -138 149
-299 85 -161 188 -362 227 -447 40 -85 84 -171 97 -192 44 -70 129 -119 207
-119 43 0 45 -1 61 -43 37 -98 134 -147 240 -123 58 14 127 55 152 90 26 38
14 5 -26 -72 -22 -43 -58 -98 -80 -124 l-40 -46 -50 33 c-36 24 -68 36 -122
44 -158 25 -228 59 -361 177 -85 76 -90 84 -159 219 -97 192 -159 307 -165
302 -2 -3 55 -141 127 -308 72 -167 160 -379 195 -470 75 -198 85 -219 129
-262 37 -38 114 -77 150 -77 17 0 27 -9 36 -30 7 -17 28 -43 46 -60 110 -97
308 -45 390 102 l29 53 2 555 c1 531 -6 655 -22 371 -4 -73 -10 -129 -13 -126
-6 6 -30 126 -63 308 -11 63 -10 71 10 115 11 26 25 64 29 86 l7 38 72 -143
c39 -79 100 -207 134 -284 45 -98 76 -154 106 -186 24 -25 43 -55 43 -65 0
-66 52 -149 111 -180 16 -8 55 -17 87 -20 150 -16 276 79 312 235 l13 53 54
-138 c30 -77 86 -231 124 -344 71 -207 100 -269 138 -304 15 -14 21 -31 21
-65 1 -98 67 -176 171 -201 79 -19 190 9 246 62 13 12 25 20 27 17 2 -2 6 -29
9 -60 5 -56 5 -57 -36 -96 -74 -69 -73 -69 -103 -34 -36 43 -70 59 -177 82
-144 32 -237 88 -355 213 -49 53 -69 87 -141 246 -46 102 -90 200 -98 218 -7
17 -17 32 -22 32 -5 0 38 -125 96 -277 57 -153 137 -376 178 -495 69 -205 92
-257 130 -288 10 -8 15 -29 15 -62 0 -134 134 -228 283 -198 32 6 60 10 62 8
7 -9 99 -346 136 -498 38 -160 73 -254 104 -280 8 -7 11 -27 8 -54 -7 -56 11
-108 50 -153 85 -97 265 -101 375 -8 46 39 72 88 142 275 34 91 120 302 191
469 72 167 128 305 126 308 -3 2 -57 -97 -122 -220 -112 -217 -119 -227 -188
-289 -40 -35 -90 -77 -111 -93 -38 -29 -39 -29 -50 -10 -29 52 -78 85 -164
110 -158 46 -224 90 -336 224 -56 68 -79 106 -101 164 l-27 76 31 26 c46 40
73 81 103 165 17 47 27 66 28 50 4 -149 22 -317 38 -354 24 -54 71 -107 116
-131 23 -13 36 -27 36 -40 1 -34 36 -100 66 -124 97 -76 252 -70 352 14 50 42
77 97 127 265 26 85 99 305 162 487 63 183 113 338 111 344 -2 6 -30 -52 -63
-130 -32 -77 -60 -139 -62 -137 -3 2 5 77 16 166 12 89 21 167 21 175 0 8 19
35 41 62 82 94 91 139 78 406 l-10 207 35 43 c67 82 70 96 74 360 l4 239 34
45 c64 83 67 98 72 321 l4 203 32 16 c64 33 106 75 137 138 47 95 44 143 -24
410 -31 121 -82 344 -113 495 -32 151 -59 277 -61 279 -12 16 -8 -32 23 -244
l35 -240 -25 -119 c-34 -159 -74 -243 -167 -342 -104 -113 -125 -171 -98 -269
11 -39 78 -117 108 -127 21 -6 -14 -59 -81 -124 -43 -41 -117 -94 -132 -94 -2
0 -6 18 -9 41 -8 57 -45 109 -124 169 -94 74 -168 173 -198 268 l-7 23 39 -25
c70 -46 185 -56 253 -21 86 44 131 154 103 248 -12 40 -31 66 -107 141 -107
106 -146 175 -176 313 -26 119 -25 164 14 408 18 116 32 212 30 214 -8 9 -14
-7 -29 -70 l-15 -64 5 68 c12 148 -13 51 -59 -235 -26 -167 -59 -343 -71 -393
l-23 -90 -1 74 c-2 118 -17 71 -30 -89 -7 -80 -16 -163 -21 -185 -5 -22 -10
-75 -10 -119 0 -79 -87 -642 -137 -891 -14 -71 -34 -173 -44 -225 -9 -52 -18
-97 -20 -100 -1 -3 -5 24 -9 60 -6 58 -1 89 45 278 29 116 49 212 45 212 -6 0
-54 -139 -95 -278 -4 -13 -8 -22 -10 -20 -1 2 1 89 5 195 l8 192 36 47 c38 49
66 126 66 178 0 17 -14 123 -30 236 -28 198 -28 206 -10 225 32 35 62 106 67
159 3 28 0 110 -6 181 -26 294 -26 293 -2 319 35 37 61 119 60 189 0 34 -6
125 -13 202 -13 138 -13 140 8 155 103 74 149 150 154 255 3 63 -2 84 -49 215
-28 80 -101 303 -161 495 -61 193 -112 352 -114 354 -15 16 -6 -31 43 -229 52
-213 54 -230 49 -315 -13 -188 -56 -308 -160 -439 -58 -74 -82 -137 -70 -190
16 -75 75 -148 130 -162 13 -3 24 -10 24 -14 0 -22 -112 -160 -160 -196 l-55
-42 -7 41 c-11 57 -51 103 -148 168 -87 58 -153 129 -196 211 -13 26 -24 49
-24 51 0 2 23 -7 51 -21 69 -34 158 -35 226 -1 62 31 105 98 111 172 7 84 -23
134 -125 214 -130 101 -177 174 -228 350 l-26 92 16 242 c8 133 13 244 10 247
-3 3 -6 3 -6 1z m-22 -1927 c75 -48 169 -62 239 -35 8 3 14 -1 14 -8 0 -37 25
-94 55 -128 42 -46 96 -65 169 -59 38 3 56 1 56 -7 0 -15 -56 -102 -93 -145
-24 -27 -151 -130 -160 -130 -1 0 -3 17 -3 38 -2 56 -26 94 -91 149 -149 125
-205 200 -253 338 -10 27 -21 59 -25 70 -4 11 4 4 18 -16 14 -20 48 -50 74
-67z m-115 -627 c61 -51 108 -69 183 -70 46 0 81 6 101 16 l32 16 5 -39 c8
-58 55 -127 102 -152 30 -16 58 -21 108 -20 37 0 67 -1 67 -3 0 -2 -13 -29
-29 -61 -28 -55 -114 -162 -131 -162 -4 0 -10 18 -13 39 -8 65 -47 103 -167
166 -88 46 -122 70 -172 124 -62 66 -168 230 -168 260 0 8 12 -8 26 -37 14
-28 39 -63 56 -77z m-2207 4 c81 -37 179 -30 266 18 4 2 9 -9 12 -25 8 -40 78
-109 124 -121 52 -15 83 -14 133 4 24 8 45 13 48 10 7 -7 -26 -110 -51 -160
-20 -40 -116 -163 -128 -164 -4 -1 -9 13 -13 29 -12 60 -52 97 -171 155 -95
46 -122 65 -176 122 -69 74 -176 232 -122 181 15 -15 51 -37 78 -49z m89 -662
c89 -30 177 -19 242 30 l31 23 17 -44 c41 -108 171 -155 277 -100 34 17 35 13
15 -61 -17 -65 -42 -122 -69 -162 -25 -38 -37 -42 -37 -13 0 24 -53 86 -90
105 -15 8 -73 25 -130 39 -68 17 -123 38 -163 63 -69 41 -212 174 -240 222
-12 21 -1 13 40 -28 40 -39 73 -63 107 -74z m3025 -379 c61 -70 171 -110 245
-90 l36 10 0 -36 c1 -112 105 -201 222 -190 21 2 38 1 38 -3 0 -13 -53 -85
-93 -127 -23 -24 -75 -63 -114 -87 l-73 -45 0 46 c0 66 -20 101 -114 192 -98
95 -142 172 -179 312 -14 52 -20 86 -14 76 7 -11 27 -37 46 -58z m-1137 -201
c10 -51 29 -175 43 -277 33 -241 41 -276 78 -331 28 -43 109 -109 133 -109 6
0 16 -18 23 -40 44 -148 237 -194 384 -90 53 37 55 37 61 17 13 -50 5 -65 -65
-132 l-71 -67 -16 24 c-36 52 -79 74 -198 98 -131 27 -199 65 -314 177 -90 86
-99 99 -146 203 l-51 110 18 98 c29 155 92 422 98 416 3 -3 14 -47 23 -97z
m847 -685 c-23 -59 -51 -120 -62 -136 -20 -29 -21 -29 -29 -7 -13 35 -11 73 6
118 8 22 31 121 51 220 58 287 58 287 68 85 l9 -173 -43 -107z m110 283 c0
-15 -38 78 -38 95 0 8 9 -7 19 -35 11 -27 20 -54 19 -60z m158 -119 c57 -20
113 -20 157 -2 l34 14 4 -48 c11 -110 89 -182 201 -184 31 0 57 -4 57 -7 0
-33 -152 -209 -181 -209 -5 0 -9 16 -9 36 0 76 -42 125 -164 194 -80 45 -153
122 -204 215 -23 43 -42 83 -42 88 0 5 23 -11 50 -36 28 -25 71 -52 97 -61z
m-203 -466 c18 -33 18 -36 1 -87 -10 -29 -21 -53 -25 -53 -10 0 -92 126 -93
142 -1 7 19 74 43 148 l45 135 5 -125 c4 -96 10 -133 24 -160z m183 -156 c30
-9 70 -14 88 -12 33 4 33 4 40 -48 8 -63 52 -137 96 -159 17 -9 56 -19 86 -22
l54 -6 -62 -63 c-35 -35 -66 -64 -70 -64 -4 0 -9 14 -13 32 -10 49 -71 99
-173 141 -66 28 -107 52 -152 93 -83 76 -87 85 -65 149 l17 53 50 -39 c27 -21
74 -46 104 -55z m-307 -106 c11 -96 11 -97 -18 -160 -16 -35 -43 -76 -60 -91
l-30 -29 -7 61 c-6 54 -3 75 28 174 20 61 41 132 48 157 l12 45 8 -30 c5 -16
13 -73 19 -127z m33 -251 c11 -113 75 -205 172 -248 40 -18 43 -21 43 -60 1
-69 39 -129 102 -162 48 -25 64 -28 125 -25 47 2 85 11 115 26 44 22 44 22
-31 -51 -82 -79 -168 -132 -177 -109 -12 35 -71 85 -145 124 -104 55 -196 145
-256 252 l-45 79 40 117 c21 65 42 116 45 114 3 -2 9 -28 12 -57z"/>
<path d="M2497 6830 c-3 -14 -20 -122 -37 -240 -34 -236 -46 -270 -147 -423
l-45 -68 -22 20 c-43 40 -90 51 -214 51 -148 -2 -210 17 -353 102 l-104 63
-149 192 c-82 106 -152 191 -155 188 -2 -3 71 -118 165 -255 93 -138 198 -296
233 -352 151 -244 189 -296 230 -320 27 -15 41 -30 41 -44 0 -11 12 -44 26
-72 80 -162 341 -140 438 37 30 56 45 160 46 320 0 46 14 243 31 438 28 328
32 429 16 363z"/>
<path d="M2954 6779 c-10 -11 -55 -42 -100 -70 -87 -52 -149 -112 -160 -155
-4 -14 -1 -85 5 -157 15 -182 14 -565 -4 -852 -8 -132 -15 -332 -15 -445 0
-113 -5 -236 -10 -275 -18 -132 -29 -241 -54 -510 -15 -162 -36 -318 -51 -390
-15 -66 -29 -135 -32 -152 -9 -55 -23 -37 -23 30 0 159 -69 692 -132 1019
l-10 57 -42 -39 c-22 -21 -70 -63 -106 -92 -107 -89 -125 -139 -95 -263 41
-167 92 -601 115 -965 5 -96 17 -245 26 -330 l16 -155 -36 -66 c-32 -58 -34
-68 -21 -79 9 -8 27 -10 46 -6 l31 6 -5 -43 c-2 -23 0 -195 6 -382 10 -350 5
-489 -29 -750 -34 -264 -88 -497 -155 -672 -51 -134 -51 -137 -16 -141 36 -4
78 23 149 95 118 120 191 324 267 743 57 318 56 304 53 897 l-3 552 26 50 c50
100 83 191 163 446 95 302 129 491 162 880 6 72 15 159 20 195 22 142 30 259
35 472 3 123 10 302 17 398 20 296 11 1170 -12 1170 -4 0 -15 -9 -26 -21z"/>
<path d="M2606 6180 c-3 -14 -22 -117 -41 -230 -20 -113 -38 -214 -42 -224 -8
-29 -101 -185 -135 -229 l-30 -37 -29 25 c-43 35 -92 45 -215 43 -129 -2 -193
16 -314 89 -121 73 -133 85 -281 279 -77 101 -144 184 -150 184 -5 0 76 -127
179 -282 104 -156 212 -323 242 -373 103 -173 160 -253 195 -275 25 -16 37
-32 46 -63 27 -106 96 -157 213 -157 117 0 211 61 258 168 15 33 23 91 34 236
8 105 31 338 50 518 32 292 39 403 20 328z"/>
<path d="M3737 5383 c-4 -7 -62 -40 -128 -74 -175 -89 -171 -83 -187 -343 -16
-269 -60 -649 -96 -827 -22 -110 -53 -328 -66 -464 -6 -66 -29 -199 -51 -295
-21 -96 -61 -288 -89 -426 -97 -489 -273 -942 -491 -1267 -32 -49 -59 -92 -59
-97 0 -19 37 -29 72 -19 54 14 191 108 234 159 59 71 137 196 197 315 66 133
183 407 227 530 42 121 112 398 145 575 15 80 38 188 52 240 34 127 68 328 83
480 7 69 23 181 36 250 28 155 69 428 85 578 6 62 13 111 14 110 5 -5 94 -349
134 -516 28 -117 47 -176 67 -205 23 -34 28 -51 25 -89 -5 -88 58 -179 146
-209 94 -32 220 -5 291 64 42 40 65 84 146 284 35 87 123 286 195 443 72 157
130 289 128 294 -3 10 -25 -27 -156 -271 -74 -137 -89 -158 -154 -216 -40 -36
-92 -78 -117 -95 l-45 -30 -33 39 c-40 47 -83 70 -172 94 -91 25 -164 69 -235
140 -103 106 -140 162 -179 272 l-35 102 15 213 c15 217 16 283 1 261z"/>
<path d="M4173 3693 c-11 -8 -66 -31 -121 -52 -55 -21 -114 -48 -131 -61 -44
-30 -67 -83 -74 -165 -17 -191 -99 -583 -220 -1055 -30 -118 -65 -269 -77
-335 -12 -66 -44 -185 -70 -265 -27 -80 -71 -224 -100 -320 -91 -308 -118
-387 -196 -563 -149 -337 -277 -557 -441 -759 -52 -64 -64 -84 -56 -97 20 -32
65 -24 171 29 93 47 109 59 178 138 99 113 199 265 320 487 155 284 232 475
335 830 27 94 65 213 83 265 43 122 88 291 121 455 14 72 39 177 55 235 70
252 115 449 161 695 33 182 91 546 87 550 -2 2 -13 -4 -25 -12z"/>
</g>
</svg>
